<svg width="836" height="576" viewBox="0 0 836 576" fill="none" xmlns="http://www.w3.org/2000/svg">
<mask id="mask0_1112:24255" style="mask-type:alpha" maskUnits="userSpaceOnUse" x="0" y="0" width="836" height="576">
<path d="M0 0H836V576H0V0Z" fill="#1F3584"/>
</mask>
<g mask="url(#mask0_1112:24255)">
<path d="M-742.179 1071.46C-742.179 1071.46 -659.207 776.398 -355.696 863.117C-52.1847 949.836 31.5099 732.515 25.4642 580.403C19.4185 428.291 91.0156 -49.1039 670.337 40.8783" stroke="#4fa9b2" stroke-width="3" stroke-miterlimit="10"/>
<path d="M-741.929 1070.42C-741.929 1070.42 -652.686 779.749 -352.503 868.7C-52.3214 957.651 39.3032 748.237 43.8719 583.909C48.448 419.623 127.332 -40.7482 697.866 48.4897" stroke="#4fa9b2" stroke-width="2.9191" stroke-miterlimit="10"/>
<path d="M-741.638 1069.37C-741.638 1069.37 -646.123 783.093 -349.305 874.325C-52.4859 965.557 47.1378 763.952 62.2863 587.458C77.4422 411.005 163.62 -32.3007 725.366 56.1926" stroke="#4fa9b2" stroke-width="2.8382" stroke-miterlimit="10"/>
<path d="M-741.388 1068.33C-741.388 1068.33 -639.603 786.445 -346.105 879.95C-52.608 973.456 54.931 779.675 80.7013 591.006C106.472 402.337 199.944 -23.9029 752.944 63.8385" stroke="#4fa9b2" stroke-width="2.7573" stroke-miterlimit="10"/>
<path d="M-741.096 1067.28C-741.096 1067.28 -632.997 789.782 -342.905 885.576C-52.8133 981.37 62.7322 795.439 99.1169 594.554C135.467 393.719 236.226 -15.4975 780.48 71.4922" stroke="#4fa9b2" stroke-width="2.6765" stroke-miterlimit="10"/>
<path d="M-740.847 1066.24C-740.847 1066.24 -626.477 793.133 -339.706 891.201C-52.9432 989.227 70.5669 811.155 117.539 598.145C164.511 385.135 272.514 -7.05027 808.03 79.2295" stroke="#4fa9b2" stroke-width="2.5956" stroke-miterlimit="10"/>
<path d="M-740.555 1065.2C-740.555 1065.2 -619.914 796.478 -336.465 896.819C-53.0232 997.118 78.4022 826.87 135.996 601.685C193.589 376.501 308.88 1.34021 835.608 86.8755" stroke="#4fa9b2" stroke-width="2.5147" stroke-miterlimit="10"/>
<path d="M-740.264 1064.15C-740.264 1064.15 -613.344 799.864 -333.266 902.444C-53.1872 1005.02 86.1954 842.592 154.411 605.234C222.577 367.841 345.162 9.7456 863.102 94.5364" stroke="#4fa9b2" stroke-width="2.4338" stroke-miterlimit="10"/>
<path d="M-740.015 1063.11C-740.015 1063.11 -606.824 803.216 -330.074 908.028C-53.3244 1012.84 93.9881 858.315 172.776 608.748C251.564 359.18 381.443 18.1509 890.637 102.19" stroke="#4fa9b2" stroke-width="2.3529" stroke-miterlimit="10"/>
<path d="M-739.723 1062.06C-739.723 1062.06 -600.26 806.56 -326.874 913.653C-53.4387 1020.78 101.824 874.03 191.191 612.296C280.601 350.555 417.724 26.5561 918.173 109.843" stroke="#4fa9b2" stroke-width="2.2721" stroke-miterlimit="10"/>
<path d="M-739.473 1061.02C-739.473 1061.02 -593.74 809.911 -323.675 919.278C-53.603 1028.69 109.617 889.753 209.606 615.844C309.645 341.971 454.055 34.9961 945.757 117.531" stroke="#4fa9b2" stroke-width="2.1912" stroke-miterlimit="10"/>
<path d="M-739.182 1059.98C-739.182 1059.98 -587.178 813.256 -320.477 924.904C-53.7332 1036.54 117.416 905.517 228.02 619.393C338.631 333.31 490.336 43.4014 973.25 125.192" stroke="#4fa9b2" stroke-width="2.1103" stroke-miterlimit="10"/>
<path d="M-738.883 1058.97C-738.883 1058.97 -580.607 816.642 -317.227 930.563C-53.8473 1044.49 125.259 921.274 246.485 622.976C367.711 324.677 526.709 51.8338 1000.88 132.873" stroke="#4fa9b2" stroke-width="2.0294" stroke-miterlimit="10"/>
<path d="M-738.633 1057.93C-738.633 1057.93 -574.087 819.993 -314.028 936.189C-53.9693 1052.38 133.094 936.989 264.9 626.524C396.705 316.059 562.99 60.2392 1028.41 140.526" stroke="#4fa9b2" stroke-width="1.9485" stroke-miterlimit="10"/>
<path d="M-738.342 1056.89C-738.342 1056.89 -567.524 823.337 -310.829 941.814C-54.134 1060.29 140.894 952.754 283.322 630.114C425.741 307.433 599.271 68.6444 1055.95 148.18" stroke="#4fa9b2" stroke-width="1.8677" stroke-miterlimit="10"/>
<path d="M-738.092 1055.85C-738.092 1055.85 -561.003 826.689 -307.636 947.398C-54.2627 1068.15 148.681 968.435 301.73 633.621C454.779 298.807 635.603 77.0846 1083.49 155.875" stroke="#4fa9b2" stroke-width="1.7868" stroke-miterlimit="10"/>
<path d="M-737.8 1054.8C-737.8 1054.8 -554.439 830.034 -304.436 953.023C-54.4335 1076.01 156.517 984.15 320.145 637.169C483.774 290.188 671.885 85.4897 1111.03 163.529" stroke="#4fa9b2" stroke-width="1.7059" stroke-miterlimit="10"/>
<path d="M-737.551 1053.76C-737.551 1053.76 -547.92 833.385 -301.238 958.648C-54.5564 1083.91 164.309 999.872 338.56 640.717C512.81 281.563 708.208 93.8876 1138.57 171.224" stroke="#4fa9b2" stroke-width="1.625" stroke-miterlimit="10"/>
<path d="M-737.259 1052.71C-737.259 1052.71 -541.357 836.729 -298.038 964.273C-54.6782 1091.81 172.11 1015.64 356.975 644.266C541.84 272.895 744.49 102.293 1166.11 178.878" stroke="#4fa9b2" stroke-width="1.5441" stroke-miterlimit="10"/>
<path d="M-736.968 1051.67C-736.968 1051.67 -534.794 840.074 -294.798 969.891C-54.8009 1099.71 179.944 1031.35 375.389 647.814C570.876 264.269 780.819 110.733 1193.64 186.531" stroke="#4fa9b2" stroke-width="1.4632" stroke-miterlimit="10"/>
<path d="M-736.719 1050.63C-736.719 1050.63 -528.274 843.425 -291.598 975.517C-54.9228 1107.61 187.78 1047.07 393.846 651.355C599.913 255.643 817.143 119.131 1221.22 194.177" stroke="#4fa9b2" stroke-width="1.3823" stroke-miterlimit="10"/>
<path d="M-736.426 1049.58C-736.426 1049.58 -521.71 846.77 -288.405 981.1C-55.1008 1115.43 195.574 1062.79 412.212 654.869C628.908 247.025 853.425 127.536 1248.76 201.873" stroke="#4fa9b2" stroke-width="1.3015" stroke-miterlimit="10"/>
<path d="M-736.178 1048.54C-736.178 1048.54 -515.19 850.121 -285.207 986.725C-55.2239 1123.33 203.366 1078.51 430.634 658.459C657.944 238.399 889.755 135.976 1276.3 209.526" stroke="#4fa9b2" stroke-width="1.2206" stroke-miterlimit="10"/>
<path d="M-735.886 1047.49C-735.886 1047.49 -508.627 853.465 -282.007 992.351C-55.3873 1131.24 211.201 1094.23 449.049 662.008C686.897 229.788 926.037 144.381 1303.79 217.187" stroke="#4fa9b2" stroke-width="1.1397" stroke-miterlimit="10"/>
<path d="M-735.595 1046.45C-735.595 1046.45 -502.065 856.81 -278.766 997.969C-55.4679 1139.13 219.044 1109.98 467.506 665.549C715.968 221.113 962.361 152.779 1331.38 224.875" stroke="#4fa9b2" stroke-width="1.0588" stroke-miterlimit="10"/>
<path d="M-735.345 1045.41C-735.345 1045.41 -495.544 860.161 -275.567 1003.59C-55.6317 1147.03 226.837 1125.71 485.921 669.097C745.005 212.487 998.642 161.184 1358.95 232.521" stroke="#4fa9b2" stroke-width="0.9779" stroke-miterlimit="10"/>
<path d="M-735.054 1044.36C-735.054 1044.36 -488.981 863.505 -272.368 1009.22C-55.754 1154.93 234.63 1141.43 504.336 672.645C774.041 203.861 1034.97 169.624 1386.49 240.174" stroke="#4fa9b2" stroke-width="0.8971" stroke-miterlimit="10"/>
<path d="M-734.797 1043.36C-734.797 1043.36 -482.453 866.899 -269.161 1014.89C-55.918 1162.84 242.472 1157.19 522.758 676.236C803.043 195.284 1071.26 178.072 1414.04 247.912" stroke="#4fa9b2" stroke-width="0.8162" stroke-miterlimit="10"/>
<path d="M-734.505 1042.32C-734.505 1042.32 -475.891 870.243 -265.969 1020.47C-56.0477 1170.7 250.265 1172.91 541.165 679.742C832.065 186.574 1107.58 186.428 1441.57 255.523" stroke="#4fa9b2" stroke-width="0.7353" stroke-miterlimit="10"/>
<path d="M-734.213 1041.27C-734.213 1041.27 -469.327 873.587 -262.727 1026.09C-56.1271 1178.59 258.101 1188.62 559.623 683.283C861.144 177.941 1143.9 194.826 1469.15 263.169" stroke="#4fa9b2" stroke-width="0.6544" stroke-miterlimit="10"/>
<path d="M-733.964 1040.23C-733.964 1040.23 -462.807 876.939 -259.57 1031.72C-56.3338 1186.5 265.893 1204.35 577.995 686.839C890.097 169.33 1180.19 203.273 1496.65 270.872" stroke="#4fa9b2" stroke-width="0.5735" stroke-miterlimit="10"/>
<path d="M-733.673 1039.18C-733.673 1039.18 -456.245 880.283 -256.329 1037.34C-56.4143 1194.39 273.736 1220.1 596.459 690.421C919.133 160.704 1216.51 211.671 1524.22 278.518" stroke="#4fa9b2" stroke-width="0.4926" stroke-miterlimit="10"/>
<path d="M-733.422 1038.14C-733.422 1038.14 -449.723 883.635 -253.129 1042.96C-56.5846 1202.26 281.53 1235.83 614.875 693.97C948.22 152.113 1252.84 220.111 1551.77 286.214" stroke="#4fa9b2" stroke-width="0.4118" stroke-miterlimit="10"/>
<path d="M-733.131 1037.1C-733.131 1037.1 -443.161 886.979 -249.93 1048.59C-56.6998 1210.2 289.323 1251.55 633.289 697.518C977.256 143.487 1289.13 228.516 1579.3 293.867" stroke="#4fa9b2" stroke-width="0.3309" stroke-miterlimit="10"/>
<path d="M-732.882 1036.06C-732.882 1036.06 -436.598 890.323 -246.731 1054.21C-56.8639 1218.11 297.165 1267.31 651.704 701.067C1006.24 134.827 1325.41 236.963 1606.85 301.562" stroke="#4fa9b2" stroke-width="0.25" stroke-miterlimit="10"/>
</g>
</svg>
