<?xml version="1.0" encoding="utf-8"?>
<svg xmlns="http://www.w3.org/2000/svg" version="1.1" width="221" height="140"><svg xmlns:xlink="http://www.w3.org/1999/xlink" version="1.1" id="Ebene_1" x="0" y="0" viewBox="0 0 282.8 179.3" enable-background="new 0 0 282.8 179.3" xml:space="preserve" width="221" height="140">
<g>
	<g>
		<polygon fill="#FFFFFF" points="196.5,32.7 199.1,32.7 199.1,34.9 193.6,35 203.2,111.4 162.5,103.6 171.3,34.9 165.7,34.9     165.7,32.7 168.4,32.7 168.4,9.6 169.3,8.1 195.6,8.1 196.5,9.4   "/>
		<g>
			<polygon points="163.1,103.5 171.9,35.3 171,35.2 162.1,103.5    "/>
			<polygon points="203.7,111.4 193.8,35.2 192.9,35.3 202.8,111.4    "/>
			<polygon fill-rule="evenodd" clip-rule="evenodd" points="200.4,86.3 164.4,86.3 167.1,66.7 197.8,66.7    "/>
			<polygon fill-rule="evenodd" clip-rule="evenodd" points="195.4,49.4 169.4,49.4 171.3,35.2 193.5,35.2    "/>
			<g opacity="0.5">
				<linearGradient id="SVGID_1_" gradientUnits="userSpaceOnUse" x1="187.951" y1="58.4488" x2="194.4139" y2="58.4488">
					<stop offset="0" style="stop-color:#C6C6C6"/>
					<stop offset="1" style="stop-color:#000000"/>
				</linearGradient>
				<polygon opacity="0.3" fill="url(#SVGID_1_)" points="188,51.3 189.8,65.6 194.4,65.6 192.6,51.3     "/>
				<polygon points="192.8,51.3 192.6,51.3 194.4,65.6 194.7,65.6     "/>
				<polygon opacity="0.15" points="192.8,51.3 192.6,51.3 194.4,65.6 194.7,65.6     "/>
				<linearGradient id="SVGID_2_" gradientUnits="userSpaceOnUse" x1="192.9272" y1="93.6069" x2="198.7157" y2="93.6069">
					<stop offset="0" style="stop-color:#C6C6C6"/>
					<stop offset="1" style="stop-color:#000000"/>
				</linearGradient>
				<polygon opacity="0.3" fill="url(#SVGID_2_)" points="192.9,88.3 194.3,98.9 198.7,98.9 197.3,88.3     "/>
				<polygon points="197.8,88.3 197.3,88.3 198.7,98.9 199.1,98.9     "/>
				<polygon opacity="0.15" points="197.8,88.3 197.3,88.3 198.7,98.9 199.1,98.9     "/>
			</g>
			<g>
				<polygon opacity="0.5" fill="#FFFFFF" points="172,83.7 173.9,69.3 169.5,69.3 167.6,83.7     "/>
				<polygon opacity="0.5" fill="#FFFFFF" points="176.7,47.6 178.1,36.9 173.7,36.9 172.3,47.6     "/>
				<polygon fill="#FFFFFF" points="167.2,83.7 167.6,83.7 169.5,69.3 169.1,69.3     "/>
				<polygon fill="#FFFFFF" points="171.9,47.6 172.3,47.6 173.7,36.9 173.2,36.9     "/>
			</g>
			
				<rect x="165.7" y="32.6" fill="#FFFFFF" stroke="#010202" stroke-width="0.4" stroke-miterlimit="10" width="33.4" height="2.2"/>
			<rect x="168" y="29" fill="#010202" width="28.9" height="4"/>
			<rect x="189.1" y="30.7" fill="#FFFFFF" width="2.1" height="0.7"/>
			<rect x="172.8" y="30.7" opacity="0.75" fill="#FFFFFF" width="5.9" height="0.7"/>
			<rect x="168" y="8.5" fill="#010202" width="28.9" height="2"/>
			
				<rect x="161.7" y="18.8" transform="matrix(-7.091323e-11 1 -1 -7.091323e-11 190.3629 -150.8192)" fill="#010202" width="17.7" height="1.9"/>
			
				<rect x="169.9" y="19.1" transform="matrix(-4.987495e-11 1 -1 -4.987495e-11 198.5476 -159.0039)" fill="#010202" width="17.7" height="1.4"/>
			
				<rect x="185" y="18.6" transform="matrix(-8.856489e-11 1 -1 -8.856489e-11 213.6599 -174.1163)" fill="#010202" width="17.7" height="2.4"/>
			<path fill="#010202" d="M195.6,8c-1-2.8-6.5-5-13.2-5s-12.2,2.2-13.2,5H195.6z"/>
			<path opacity="0.75" fill="#FFFFFF" d="M179.3,4.6c-0.3,0-0.5-0.1-0.8-0.1c-3.7,0-6.8,1.2-7.4,2.8h8.2V4.6z"/>
			<path fill="#010202" d="M185.1,2.8V0h-6.5v2.9c1.2-0.1,2.4-0.2,3.7-0.2C183.2,2.6,184.2,2.7,185.1,2.8z"/>
		</g>
	</g>
	<path fill="none" stroke="#888989" stroke-miterlimit="10" d="M0.8,170.9c93.2-15.5,189.2-17.7,281.9-3.9"/>
	<g>
		<g>
			<path fill="#3963A4" d="M44.5,178.7c0,0.1-0.1,0.2-0.2,0.2c-0.1,0.1-0.1,0.1-0.2,0.2c-0.1,0-0.2,0.1-0.4,0.1     c-0.2,0-0.4,0.1-0.7,0.1c-0.3,0-0.6,0.1-0.7,0.1c-0.2,0-0.3,0-0.4,0c-0.1,0-0.2-0.1-0.2-0.1c0-0.1-0.1-0.1-0.1-0.2     c-0.5-3.7-0.8-5.5-1.3-9.2c0-0.1,0-0.3,0-0.3c0-0.1,0-0.2,0.1-0.2c0.1-0.1,0.2-0.1,0.3-0.1c0.1,0,0.3-0.1,0.6-0.1     c0.3,0,0.5,0,0.6-0.1c0.1,0,0.3,0,0.3,0c0.1,0,0.1,0.1,0.1,0.1c0,0.1,0,0.1,0,0.2c0.4,3.1,0.5,4.7,0.9,7.8c0,0,0,0,0,0     c1.6-3.4,2.4-5,4-8.4c0-0.1,0.1-0.1,0.1-0.2c0-0.1,0.1-0.1,0.2-0.1c0.1,0,0.2-0.1,0.3-0.1c0.1,0,0.3-0.1,0.6-0.1     c0.3,0,0.5,0,0.6,0c0.1,0,0.2,0,0.3,0.1c0,0.1,0.1,0.1,0,0.3s-0.1,0.3-0.2,0.5C47.4,172.9,46.4,174.8,44.5,178.7z"/>
			<path fill="#3963A4" d="M55.4,172.1c0,0.4-0.1,0.7-0.3,1.1c-0.2,0.3-0.4,0.6-0.8,0.9c-0.4,0.3-0.8,0.5-1.4,0.6     c-0.6,0.2-1.2,0.3-2,0.4c-0.3,0-0.4,0-0.7,0.1c0,0.1,0,0.2,0,0.4c0,0.1,0,0.2,0,0.3c0,0.4,0.1,0.7,0.3,0.9     c0.2,0.2,0.6,0.3,1.1,0.2c0.3,0,0.7-0.1,0.9-0.2c0.3-0.1,0.5-0.2,0.7-0.2c0.2-0.1,0.4-0.2,0.5-0.2c0.1-0.1,0.2-0.1,0.3-0.1     c0.1,0,0.1,0,0.1,0c0,0,0,0.1,0,0.2c0,0.1,0,0.2,0,0.3c0,0.1,0,0.2-0.1,0.4c0,0.1-0.1,0.2-0.1,0.3c0,0.1-0.1,0.2-0.2,0.2     c-0.1,0.1-0.2,0.1-0.3,0.2c-0.2,0.1-0.4,0.2-0.6,0.2c-0.2,0.1-0.5,0.1-0.8,0.2c-0.3,0.1-0.6,0.1-0.9,0.1c-0.5,0.1-1,0-1.3,0     c-0.4-0.1-0.7-0.2-1-0.4c-0.3-0.2-0.4-0.4-0.6-0.8c-0.1-0.3-0.2-0.7-0.2-1.2c0-0.4,0-0.7,0.1-1.2c0.1-0.4,0.2-0.8,0.3-1.2     c0.1-0.4,0.3-0.8,0.6-1.2c0.2-0.4,0.5-0.7,0.8-1c0.3-0.3,0.7-0.6,1.1-0.8c0.4-0.2,0.9-0.3,1.5-0.4c0.5,0,0.9,0,1.2,0     c0.3,0.1,0.6,0.2,0.9,0.4c0.2,0.2,0.4,0.4,0.5,0.6C55.3,171.6,55.4,171.9,55.4,172.1z M53.4,172.5c0-0.2-0.1-0.4-0.3-0.5     c-0.2-0.1-0.4-0.2-0.7-0.1c-0.3,0-0.5,0.1-0.7,0.2c-0.2,0.1-0.4,0.3-0.6,0.4s-0.3,0.4-0.4,0.6c-0.1,0.2-0.2,0.5-0.3,0.7     c0.3,0,0.4,0,0.7-0.1c0.4,0,0.8-0.1,1.1-0.2c0.3-0.1,0.5-0.2,0.7-0.3c0.2-0.1,0.3-0.2,0.4-0.4C53.4,172.7,53.4,172.6,53.4,172.5z     "/>
			<path fill="#3963A4" d="M61.9,169.8c0,0,0,0.1,0,0.2c0,0.1,0,0.2,0,0.3c0,0.1,0,0.3-0.1,0.4c0,0.1-0.1,0.3-0.1,0.4     c0,0.1-0.1,0.2-0.1,0.3c-0.1,0.1-0.1,0.1-0.2,0.1c0,0-0.1,0-0.1,0c0,0-0.1,0-0.2,0c-0.1,0-0.1,0-0.2,0c-0.1,0-0.1,0-0.2,0     c-0.2,0-0.4,0.1-0.6,0.3c-0.2,0.2-0.4,0.4-0.6,0.6c-0.2,0.2-0.4,0.5-0.5,0.8c-0.1,0.3-0.2,0.6-0.3,1c-0.3,1.3-0.4,2-0.6,3.3     c0,0.1,0,0.1-0.1,0.1c0,0-0.1,0.1-0.2,0.1c-0.1,0-0.2,0.1-0.3,0.1c-0.1,0-0.3,0-0.5,0.1c-0.2,0-0.4,0-0.5,0c-0.1,0-0.2,0-0.3,0     c-0.1,0-0.1,0-0.1-0.1c0,0,0-0.1,0-0.1c0.6-2.9,0.8-4.3,1.4-7.2c0-0.1,0-0.1,0.1-0.1c0,0,0.1-0.1,0.2-0.1c0.1,0,0.2-0.1,0.3-0.1     c0.1,0,0.3,0,0.4-0.1c0.2,0,0.3,0,0.4,0c0.1,0,0.2,0,0.2,0c0.1,0,0.1,0,0.1,0.1c0,0,0,0.1,0,0.1c-0.1,0.5-0.1,0.7-0.2,1.2     c0.1-0.2,0.3-0.5,0.4-0.7c0.2-0.2,0.3-0.4,0.5-0.5c0.2-0.2,0.4-0.3,0.6-0.4c0.2-0.1,0.4-0.2,0.6-0.2c0.1,0,0.2,0,0.2,0     c0.1,0,0.2,0,0.2,0c0.1,0,0.1,0,0.2,0c0.1,0,0.1,0,0.1,0.1C61.8,169.7,61.9,169.8,61.9,169.8z"/>
			<path fill="#3963A4" d="M72.8,176.1c0,0.1,0,0.1-0.1,0.1c0,0-0.1,0.1-0.2,0.1c-0.1,0-0.2,0.1-0.3,0.1c-0.1,0-0.3,0-0.5,0.1     c-0.2,0-0.4,0-0.5,0c-0.1,0-0.2,0-0.3,0c-0.1,0-0.1-0.1-0.1-0.1c0,0,0-0.1,0-0.1c0.3-1.7,0.5-2.6,0.8-4.3c0-0.1,0-0.2,0.1-0.4     c0-0.1,0-0.2,0-0.4c0-0.2,0-0.4-0.1-0.6c-0.1-0.1-0.3-0.2-0.5-0.2c-0.2,0-0.4,0.1-0.7,0.3c-0.2,0.2-0.4,0.4-0.7,0.6     c-0.2,0.3-0.4,0.5-0.6,0.9c-0.2,0.3-0.3,0.7-0.3,1c-0.3,1.3-0.4,2-0.6,3.3c0,0.1,0,0.1-0.1,0.1c0,0-0.1,0.1-0.2,0.1     c-0.1,0-0.2,0.1-0.3,0.1c-0.1,0-0.3,0-0.5,0.1c-0.2,0-0.3,0-0.5,0c-0.1,0-0.2,0-0.3,0c-0.1,0-0.1-0.1-0.1-0.1c0,0,0-0.1,0-0.1     c0.3-1.7,0.5-2.6,0.8-4.3c0-0.1,0.1-0.3,0.1-0.4c0-0.1,0-0.3,0-0.4c0-0.2,0-0.4-0.1-0.6c-0.1-0.1-0.3-0.2-0.5-0.2     c-0.2,0-0.4,0.1-0.7,0.3c-0.2,0.2-0.4,0.4-0.7,0.6c-0.2,0.3-0.4,0.5-0.6,0.9c-0.2,0.3-0.3,0.7-0.3,1c-0.3,1.3-0.4,2-0.6,3.3     c0,0.1,0,0.1-0.1,0.1c0,0-0.1,0.1-0.2,0.1c-0.1,0-0.2,0.1-0.3,0.1c-0.1,0-0.3,0-0.5,0.1c-0.2,0-0.4,0-0.5,0c-0.1,0-0.2,0-0.3,0     c-0.1,0-0.1,0-0.1-0.1c0,0,0-0.1,0-0.1c0.6-2.9,0.9-4.3,1.4-7.2c0-0.1,0-0.1,0.1-0.1c0,0,0.1-0.1,0.2-0.1c0.1,0,0.2-0.1,0.3-0.1     c0.1,0,0.3,0,0.4-0.1c0.2,0,0.3,0,0.4,0c0.1,0,0.2,0,0.2,0c0.1,0,0.1,0,0.1,0.1c0,0,0,0.1,0,0.1c-0.1,0.5-0.1,0.7-0.2,1.2     c0.1-0.2,0.3-0.4,0.4-0.6c0.2-0.2,0.4-0.4,0.6-0.6c0.2-0.2,0.5-0.3,0.8-0.4c0.3-0.1,0.6-0.2,0.9-0.2c0.3,0,0.6,0,0.8,0.1     c0.2,0.1,0.4,0.2,0.6,0.3c0.1,0.1,0.3,0.3,0.3,0.5c0.1,0.2,0.1,0.4,0.1,0.6c0.1-0.2,0.3-0.4,0.5-0.6c0.2-0.2,0.4-0.4,0.6-0.6     c0.2-0.2,0.5-0.3,0.8-0.4c0.3-0.1,0.6-0.2,0.9-0.2c0.4,0,0.7,0,0.9,0.1c0.3,0.1,0.5,0.2,0.6,0.4c0.2,0.2,0.3,0.4,0.3,0.6     c0.1,0.2,0.1,0.5,0.1,0.8c0,0.2,0,0.4,0,0.6c0,0.2-0.1,0.4-0.1,0.6C73.4,173.5,73.2,174.3,72.8,176.1z"/>
			<path fill="#3963A4" d="M76.8,175.8c0,0.1,0,0.1-0.1,0.1c0,0-0.1,0.1-0.2,0.1c-0.1,0-0.2,0.1-0.3,0.1s-0.3,0-0.5,0.1     c-0.2,0-0.4,0-0.5,0s-0.2,0-0.3,0c-0.1,0-0.1-0.1-0.1-0.1c0,0,0-0.1,0-0.1c0.6-2.9,0.8-4.3,1.4-7.2c0-0.1,0-0.1,0.1-0.1     c0,0,0.1-0.1,0.2-0.1c0.1,0,0.2-0.1,0.3-0.1c0.1,0,0.3,0,0.5-0.1c0.2,0,0.4,0,0.5,0c0.1,0,0.2,0,0.3,0c0.1,0,0.1,0.1,0.1,0.1     c0,0,0,0.1,0,0.1C77.7,171.5,77.4,172.9,76.8,175.8z M78.9,166.2c0,0.2-0.1,0.4-0.2,0.5c-0.1,0.1-0.1,0.3-0.3,0.3     c-0.1,0.1-0.2,0.2-0.4,0.2c-0.2,0-0.3,0.1-0.6,0.1c-0.2,0-0.4,0-0.5,0c-0.1,0-0.2-0.1-0.3-0.2c-0.1-0.1-0.1-0.2-0.1-0.3     c0-0.1,0-0.3,0-0.5c0-0.2,0.1-0.4,0.2-0.5c0.1-0.1,0.1-0.3,0.3-0.3c0.1-0.1,0.2-0.2,0.4-0.2c0.2,0,0.3-0.1,0.6-0.1     c0.2,0,0.4,0,0.5,0c0.1,0,0.2,0.1,0.3,0.2c0.1,0.1,0.1,0.2,0.1,0.3C78.9,165.8,78.9,166,78.9,166.2z"/>
			<path fill="#3963A4" d="M86.2,169.6c0,0.4-0.1,0.7-0.3,1c-0.2,0.3-0.4,0.6-0.8,0.8c-0.4,0.2-0.8,0.4-1.4,0.6     c-0.6,0.2-1.2,0.3-2,0.3c-0.3,0-0.4,0-0.7,0.1c0,0.1,0,0.2,0,0.4c0,0.1,0,0.2,0,0.3c0,0.4,0.1,0.7,0.3,0.9     c0.2,0.2,0.6,0.3,1.1,0.3c0.4,0,0.7-0.1,0.9-0.1c0.3-0.1,0.5-0.1,0.7-0.2c0.2-0.1,0.4-0.1,0.5-0.2c0.1-0.1,0.2-0.1,0.3-0.1     c0.1,0,0.1,0,0.1,0c0,0,0,0.1,0,0.2c0,0.1,0,0.2,0,0.3c0,0.1,0,0.2-0.1,0.4c0,0.1-0.1,0.2-0.1,0.3c0,0.1-0.1,0.2-0.2,0.2     c-0.1,0.1-0.2,0.1-0.4,0.2c-0.2,0.1-0.4,0.1-0.6,0.2c-0.2,0.1-0.5,0.1-0.8,0.2c-0.3,0.1-0.6,0.1-0.9,0.1c-0.5,0-1,0-1.3-0.1     c-0.4-0.1-0.7-0.2-1-0.4c-0.3-0.2-0.4-0.5-0.6-0.8c-0.1-0.3-0.2-0.7-0.2-1.2c0-0.4,0-0.7,0.1-1.2c0.1-0.4,0.2-0.8,0.3-1.2     c0.1-0.4,0.3-0.8,0.6-1.2c0.2-0.4,0.5-0.7,0.8-1c0.3-0.3,0.7-0.5,1.2-0.7c0.4-0.2,0.9-0.3,1.5-0.4c0.5,0,0.9,0,1.2,0.1     c0.3,0.1,0.6,0.2,0.9,0.4c0.2,0.2,0.4,0.4,0.5,0.6C86.2,169.1,86.2,169.4,86.2,169.6z M84.2,169.9c0-0.2-0.1-0.4-0.3-0.5     c-0.2-0.1-0.4-0.2-0.7-0.2c-0.3,0-0.5,0.1-0.7,0.2c-0.2,0.1-0.4,0.3-0.6,0.4c-0.2,0.2-0.3,0.4-0.4,0.6c-0.1,0.2-0.2,0.5-0.3,0.7     c0.3,0,0.4,0,0.7,0c0.4,0,0.8-0.1,1.1-0.2c0.3-0.1,0.5-0.2,0.7-0.3c0.2-0.1,0.3-0.2,0.4-0.4C84.2,170.2,84.2,170,84.2,169.9z"/>
			<path fill="#3963A4" d="M92.3,167.7c0,0.1,0,0.1,0,0.2c0,0.1,0,0.2,0,0.3c0,0.1,0,0.2-0.1,0.3s-0.1,0.2-0.1,0.3     c0,0.1-0.1,0.1-0.1,0.2c-0.1,0.1-0.1,0.1-0.2,0.1c-0.6,0-0.9,0.1-1.6,0.1c-0.3,1.4-0.4,2-0.7,3.4c0,0.1,0,0.2,0,0.3     c0,0.1,0,0.2,0,0.3c0,0.2,0.1,0.4,0.2,0.5c0.1,0.1,0.3,0.1,0.5,0.1c0.1,0,0.2,0,0.3,0c0.1,0,0.2-0.1,0.2-0.1     c0.1,0,0.1-0.1,0.2-0.1c0,0,0.1,0,0.1,0c0,0,0.1,0,0.1,0.1c0,0,0,0.1,0,0.2c0,0.1,0,0.2,0,0.3c0,0.1,0,0.3-0.1,0.4     c0,0.1-0.1,0.2-0.1,0.3c0,0.1-0.1,0.2-0.1,0.2c0,0.1-0.1,0.1-0.2,0.1c-0.1,0-0.2,0.1-0.3,0.1c-0.1,0-0.3,0.1-0.4,0.1     c-0.1,0-0.3,0-0.4,0.1c-0.3,0-0.6,0-0.8,0c-0.2-0.1-0.4-0.1-0.6-0.3c-0.2-0.1-0.3-0.3-0.4-0.5c-0.1-0.2-0.1-0.5-0.1-0.8     c0-0.1,0-0.1,0-0.2c0-0.1,0-0.2,0-0.2c0-0.1,0-0.2,0-0.3c0-0.1,0-0.2,0-0.2c0.3-1.4,0.4-2.1,0.7-3.5c-0.3,0-0.5,0-0.9,0.1     c-0.1,0-0.1,0-0.2-0.1c0,0,0-0.1,0-0.3c0-0.1,0-0.2,0-0.4c0-0.1,0-0.3,0.1-0.4c0-0.1,0.1-0.3,0.2-0.4c0.1-0.1,0.2-0.2,0.2-0.2     c0.3,0,0.5,0,0.9-0.1c0.1-0.6,0.2-1,0.3-1.6c0-0.1,0-0.1,0.1-0.1c0,0,0.1-0.1,0.2-0.1c0.1,0,0.2-0.1,0.3-0.1c0.1,0,0.3,0,0.5-0.1     c0.2,0,0.4,0,0.5,0c0.1,0,0.2,0,0.3,0c0.1,0,0.1,0.1,0.1,0.1c0,0,0,0.1,0,0.1c-0.1,0.6-0.2,1-0.3,1.6c0.6,0,0.9-0.1,1.5-0.1     c0.1,0,0.2,0,0.2,0.1C92.3,167.5,92.3,167.6,92.3,167.7z"/>
			<path fill="#3963A4" d="M99,174.4c0,0.1,0,0.1-0.1,0.1c0,0-0.1,0.1-0.2,0.1c-0.1,0-0.2,0.1-0.3,0.1c-0.1,0-0.3,0-0.4,0     c-0.2,0-0.3,0-0.4,0c-0.1,0-0.2,0-0.2,0c-0.1,0-0.1-0.1-0.1-0.1c0,0,0-0.1,0-0.1c0.1-0.5,0.1-0.7,0.2-1.2     c-0.1,0.2-0.3,0.4-0.4,0.6c-0.2,0.2-0.4,0.4-0.6,0.6c-0.2,0.2-0.5,0.3-0.8,0.4c-0.3,0.1-0.6,0.2-0.9,0.2c-0.4,0-0.7,0-0.9-0.1     c-0.3-0.1-0.5-0.2-0.6-0.4c-0.2-0.2-0.3-0.4-0.3-0.6c-0.1-0.2-0.1-0.5-0.1-0.8c0-0.2,0-0.4,0-0.6c0-0.2,0.1-0.4,0.1-0.6     c0.3-1.8,0.5-2.7,0.9-4.5c0-0.1,0-0.1,0.1-0.1c0,0,0.1-0.1,0.2-0.1c0.1,0,0.2-0.1,0.3-0.1c0.1,0,0.3,0,0.5,0c0.2,0,0.4,0,0.5,0     c0.1,0,0.2,0,0.3,0c0.1,0,0.1,0,0.1,0.1c0,0,0,0.1,0,0.1c-0.3,1.7-0.5,2.6-0.8,4.3c0,0.1,0,0.2-0.1,0.4c0,0.1,0,0.3,0,0.4     c0,0.1,0,0.2,0,0.3c0,0.1,0.1,0.2,0.1,0.3c0.1,0.1,0.1,0.1,0.2,0.2c0.1,0,0.2,0,0.3,0c0.2,0,0.4-0.1,0.7-0.2     c0.2-0.2,0.5-0.4,0.7-0.6c0.2-0.3,0.4-0.6,0.6-0.9c0.2-0.3,0.3-0.7,0.4-1.1c0.2-1.2,0.4-1.9,0.6-3.1c0-0.1,0-0.1,0.1-0.1     c0,0,0.1-0.1,0.2-0.1c0.1,0,0.2-0.1,0.3-0.1c0.1,0,0.3,0,0.5,0c0.2,0,0.4,0,0.5,0c0.1,0,0.2,0,0.3,0c0.1,0,0.1,0,0.1,0.1     c0,0,0,0.1,0,0.1C99.8,170.1,99.5,171.5,99,174.4z"/>
			<path fill="#3963A4" d="M108.6,168.4c0,0.2,0,0.4,0,0.6c0,0.2-0.1,0.4-0.1,0.6c-0.4,1.8-0.5,2.7-0.9,4.4c0,0.1,0,0.1-0.1,0.1     c0,0-0.1,0.1-0.2,0.1c-0.1,0-0.2,0.1-0.3,0.1c-0.1,0-0.3,0-0.5,0c-0.2,0-0.4,0-0.5,0c-0.1,0-0.2,0-0.3,0c-0.1,0-0.1-0.1-0.1-0.1     c0,0,0-0.1,0-0.1c0.3-1.7,0.5-2.6,0.9-4.3c0-0.1,0-0.3,0.1-0.4c0-0.1,0-0.3,0-0.4c0-0.2-0.1-0.4-0.2-0.6     c-0.1-0.1-0.3-0.2-0.5-0.2c-0.2,0-0.4,0.1-0.7,0.2c-0.2,0.1-0.5,0.3-0.7,0.6c-0.2,0.2-0.4,0.5-0.6,0.9c-0.2,0.3-0.3,0.7-0.4,1     c-0.3,1.3-0.4,2-0.6,3.3c0,0.1,0,0.1-0.1,0.1s-0.1,0.1-0.2,0.1c-0.1,0-0.2,0.1-0.3,0.1c-0.1,0-0.3,0-0.5,0c-0.2,0-0.4,0-0.5,0     c-0.1,0-0.2,0-0.3,0c-0.1,0-0.1-0.1-0.1-0.1c0,0,0-0.1,0-0.1c0.6-2.9,0.9-4.3,1.4-7.2c0-0.1,0-0.1,0.1-0.1c0,0,0.1-0.1,0.2-0.1     c0.1,0,0.2-0.1,0.3-0.1c0.1,0,0.3,0,0.4,0c0.2,0,0.3,0,0.4,0c0.1,0,0.2,0,0.2,0c0.1,0,0.1,0.1,0.1,0.1c0,0,0,0.1,0,0.1     c-0.1,0.5-0.1,0.7-0.2,1.2c0.1-0.2,0.3-0.4,0.4-0.6c0.2-0.2,0.4-0.4,0.6-0.6c0.2-0.2,0.5-0.3,0.8-0.4c0.3-0.1,0.6-0.2,0.9-0.2     c0.4,0,0.7,0,0.9,0.1c0.3,0.1,0.5,0.2,0.6,0.4c0.2,0.2,0.3,0.4,0.3,0.6C108.6,167.9,108.6,168.1,108.6,168.4z"/>
			<path fill="#3963A4" d="M116.1,173.9c-0.1,0.5-0.2,0.9-0.4,1.3c-0.2,0.4-0.5,0.7-0.8,0.9s-0.7,0.5-1.2,0.6     c-0.5,0.1-1,0.2-1.6,0.2c-0.5,0-0.9,0-1.2-0.1c-0.4-0.1-0.7-0.1-0.9-0.2c-0.1,0-0.1-0.1-0.2-0.1c0-0.1,0-0.1,0-0.2     c0,0,0-0.1,0-0.2c0-0.1,0-0.2,0-0.2c0-0.1,0-0.2,0.1-0.3s0.1-0.2,0.1-0.3c0-0.1,0.1-0.1,0.1-0.2c0-0.1,0.1-0.1,0.2-0.1     c0.1,0,0.1,0,0.2,0.1c0.1,0,0.2,0.1,0.4,0.1c0.2,0,0.3,0.1,0.6,0.1c0.2,0,0.5,0,0.8,0c0.3,0,0.5,0,0.7-0.1     c0.2-0.1,0.4-0.1,0.6-0.2c0.2-0.1,0.3-0.2,0.4-0.4c0.1-0.2,0.2-0.3,0.2-0.6c0.1-0.3,0.1-0.6,0.2-0.9c0.1-0.2,0.1-0.4,0.2-0.6     c-0.1,0.2-0.2,0.4-0.4,0.5c-0.2,0.2-0.4,0.3-0.6,0.5c-0.2,0.1-0.5,0.3-0.7,0.4c-0.3,0.1-0.5,0.1-0.8,0.2c-0.4,0-0.8,0-1-0.2     c-0.3-0.1-0.5-0.3-0.7-0.5c-0.2-0.2-0.3-0.5-0.4-0.8c-0.1-0.3-0.1-0.7-0.1-1.1c0-0.3,0-0.7,0.1-1.1c0.1-0.4,0.2-0.8,0.3-1.2     c0.1-0.4,0.3-0.8,0.5-1.2c0.2-0.4,0.5-0.7,0.7-1c0.3-0.3,0.6-0.5,1-0.7c0.4-0.2,0.8-0.3,1.3-0.3c0.4,0,0.8,0.1,1.2,0.2     c0.3,0.2,0.6,0.4,0.9,0.8c0.1-0.3,0.1-0.4,0.1-0.6c0-0.1,0.1-0.2,0.3-0.2c0.1-0.1,0.4-0.1,0.7-0.1c0.2,0,0.3,0,0.4,0     c0.1,0,0.2,0,0.3,0c0.1,0,0.1,0.1,0.1,0.1c0,0,0,0.1,0,0.1C117,169.4,116.7,170.9,116.1,173.9z M115.2,168.7     c-0.2-0.3-0.4-0.5-0.6-0.6c-0.2-0.1-0.5-0.2-0.8-0.2c-0.2,0-0.4,0.1-0.6,0.2c-0.2,0.1-0.3,0.3-0.5,0.4c-0.1,0.2-0.3,0.4-0.4,0.6     c-0.1,0.2-0.2,0.5-0.3,0.7c-0.1,0.3-0.1,0.5-0.2,0.8c0,0.3-0.1,0.5-0.1,0.7c0,0.2,0,0.3,0,0.5c0,0.1,0.1,0.3,0.1,0.4     c0.1,0.1,0.2,0.2,0.3,0.2c0.1,0.1,0.2,0.1,0.4,0.1c0.2,0,0.5-0.1,0.7-0.2c0.2-0.2,0.5-0.4,0.7-0.6c0.2-0.3,0.4-0.5,0.6-0.9     c0.2-0.3,0.3-0.7,0.4-1C115.1,169.3,115.1,169.1,115.2,168.7z"/>
			<path fill="#3963A4" d="M125.6,167.8c0,0.4-0.1,0.7-0.3,1c-0.2,0.3-0.4,0.6-0.8,0.8c-0.4,0.2-0.8,0.4-1.4,0.5     c-0.6,0.1-1.2,0.2-2,0.2c-0.3,0-0.4,0-0.7,0c0,0.1,0,0.2,0,0.4c0,0.1,0,0.2,0,0.3c0,0.4,0.1,0.8,0.3,1c0.2,0.2,0.6,0.3,1.1,0.3     c0.4,0,0.7,0,0.9-0.1c0.3-0.1,0.5-0.1,0.7-0.2c0.2-0.1,0.4-0.1,0.5-0.2c0.1-0.1,0.2-0.1,0.3-0.1c0.1,0,0.1,0,0.1,0.1     c0,0,0,0.1,0,0.2c0,0.1,0,0.2,0,0.3c0,0.1,0,0.2-0.1,0.3c0,0.1-0.1,0.2-0.1,0.3c0,0.1-0.1,0.2-0.2,0.2c-0.1,0.1-0.2,0.1-0.4,0.2     c-0.2,0.1-0.4,0.1-0.6,0.2c-0.2,0.1-0.5,0.1-0.8,0.2c-0.3,0-0.6,0.1-0.9,0.1c-0.5,0-1,0-1.3-0.1c-0.4-0.1-0.7-0.2-1-0.5     c-0.3-0.2-0.4-0.5-0.6-0.8c-0.1-0.3-0.2-0.7-0.2-1.2c0-0.4,0-0.7,0.1-1.1c0.1-0.4,0.2-0.8,0.3-1.2c0.1-0.4,0.3-0.8,0.6-1.2     c0.2-0.4,0.5-0.7,0.8-1c0.3-0.3,0.7-0.5,1.2-0.7c0.4-0.2,0.9-0.3,1.5-0.3c0.5,0,0.9,0,1.2,0.1c0.3,0.1,0.6,0.2,0.9,0.4     c0.2,0.2,0.4,0.4,0.5,0.6C125.6,167.3,125.6,167.5,125.6,167.8z M123.6,168c0-0.2-0.1-0.4-0.3-0.5c-0.2-0.1-0.4-0.2-0.7-0.2     c-0.3,0-0.5,0.1-0.7,0.2c-0.2,0.1-0.4,0.2-0.6,0.4c-0.2,0.2-0.3,0.4-0.4,0.6c-0.1,0.2-0.2,0.5-0.3,0.7c0.3,0,0.4,0,0.7,0     c0.4,0,0.8-0.1,1.1-0.1s0.5-0.1,0.7-0.2c0.2-0.1,0.3-0.2,0.4-0.4C123.6,168.3,123.6,168.1,123.6,168z"/>
			<path fill="#3963A4" d="M133.9,167.6c0,0.2,0,0.4,0,0.6c0,0.2-0.1,0.4-0.1,0.6c-0.4,1.8-0.5,2.6-0.9,4.4c0,0.1,0,0.1-0.1,0.1     c0,0-0.1,0.1-0.2,0.1c-0.1,0-0.2,0.1-0.3,0.1c-0.1,0-0.3,0-0.5,0c-0.2,0-0.4,0-0.5,0c-0.1,0-0.2,0-0.3-0.1     c-0.1,0-0.1-0.1-0.1-0.1c0,0,0-0.1,0-0.1c0.3-1.7,0.5-2.6,0.9-4.3c0-0.1,0-0.3,0.1-0.4c0-0.1,0-0.2,0-0.4c0-0.2-0.1-0.4-0.2-0.6     c-0.1-0.2-0.3-0.2-0.5-0.2c-0.2,0-0.4,0.1-0.7,0.2c-0.2,0.1-0.5,0.3-0.7,0.6c-0.2,0.2-0.4,0.5-0.6,0.8c-0.2,0.3-0.3,0.7-0.4,1     c-0.3,1.3-0.4,1.9-0.6,3.2c0,0.1,0,0.1-0.1,0.1c0,0-0.1,0.1-0.2,0.1c-0.1,0-0.2,0.1-0.3,0.1c-0.1,0-0.3,0-0.5,0     c-0.2,0-0.4,0-0.5,0c-0.1,0-0.2,0-0.3-0.1c-0.1,0-0.1-0.1-0.1-0.1c0,0,0-0.1,0-0.1c0.6-2.9,0.9-4.3,1.4-7.2c0-0.1,0-0.1,0.1-0.1     c0,0,0.1-0.1,0.2-0.1c0.1,0,0.2,0,0.3-0.1s0.3,0,0.4,0c0.2,0,0.3,0,0.4,0c0.1,0,0.2,0,0.2,0c0.1,0,0.1,0.1,0.1,0.1     c0,0,0,0.1,0,0.1c-0.1,0.5-0.1,0.7-0.2,1.2c0.1-0.2,0.3-0.4,0.4-0.6s0.4-0.4,0.6-0.5c0.2-0.2,0.5-0.3,0.8-0.4     c0.3-0.1,0.6-0.2,0.9-0.2c0.4,0,0.7,0,0.9,0.1c0.3,0.1,0.5,0.2,0.6,0.4c0.2,0.2,0.3,0.4,0.3,0.6     C133.8,167,133.9,167.3,133.9,167.6z"/>
			<path d="M142.8,168.9c0,0,0,0.1,0,0.1c0,0.1,0,0.1,0,0.2c0,0.1,0,0.1-0.1,0.2c0,0.1,0,0.1-0.1,0.2c0,0.1-0.1,0.1-0.1,0.1     c0,0-0.1,0-0.1,0c-1.3,0-2,0-3.3,0c-0.1,0-0.1,0-0.2-0.1c0,0,0-0.1,0-0.2c0,0,0-0.1,0-0.1c0-0.1,0-0.1,0-0.2c0-0.1,0-0.1,0.1-0.2     c0-0.1,0-0.1,0.1-0.2c0-0.1,0.1-0.1,0.1-0.1c0,0,0.1,0,0.1,0c1.3,0,2,0,3.3,0c0.1,0,0.1,0,0.2,0.1     C142.7,168.8,142.8,168.9,142.8,168.9z"/>
			<path d="M154.3,163.6c0,0,0,0.1,0,0.1s0,0.1,0,0.2c0,0.1,0,0.1,0,0.2c0,0.1,0,0.1-0.1,0.2c0,0.1-0.1,0.1-0.1,0.1c0,0-0.1,0-0.1,0     c-0.1,0-0.1,0-0.2-0.1c-0.1-0.1-0.2-0.1-0.4-0.2c-0.2-0.1-0.4-0.1-0.6-0.2c-0.2-0.1-0.5-0.1-0.8-0.1c-0.3,0-0.6,0.1-0.9,0.1     c-0.2,0.1-0.4,0.2-0.6,0.4c-0.2,0.2-0.3,0.4-0.4,0.6c-0.1,0.2-0.1,0.4-0.1,0.7c0,0.2,0.1,0.4,0.2,0.6c0.1,0.2,0.2,0.3,0.4,0.5     c0.2,0.1,0.4,0.3,0.6,0.4c0.2,0.1,0.4,0.3,0.7,0.4c0.2,0.1,0.4,0.3,0.7,0.4c0.2,0.2,0.4,0.3,0.6,0.5c0.2,0.2,0.3,0.4,0.4,0.7     s0.2,0.6,0.2,0.9c0,0.5-0.1,0.9-0.3,1.3c-0.2,0.4-0.5,0.7-0.8,1c-0.3,0.3-0.8,0.5-1.2,0.7c-0.5,0.2-1,0.3-1.6,0.3     c-0.3,0-0.6,0-0.9-0.1c-0.3-0.1-0.5-0.1-0.8-0.2s-0.4-0.2-0.6-0.3c-0.2-0.1-0.3-0.2-0.3-0.2c-0.1-0.1-0.1-0.2-0.1-0.3     c0,0,0-0.1,0-0.1c0-0.1,0-0.1,0-0.2c0-0.1,0-0.1,0.1-0.2c0-0.1,0-0.1,0.1-0.2c0-0.1,0.1-0.1,0.1-0.1c0,0,0.1-0.1,0.1-0.1     c0.1,0,0.2,0,0.3,0.1c0.1,0.1,0.3,0.2,0.5,0.3c0.2,0.1,0.4,0.2,0.7,0.3c0.3,0.1,0.6,0.1,0.9,0.1c0.4,0,0.7-0.1,1-0.2     c0.3-0.1,0.5-0.2,0.7-0.4c0.2-0.2,0.4-0.4,0.5-0.6c0.1-0.2,0.2-0.5,0.2-0.8c0-0.2-0.1-0.4-0.2-0.6c-0.1-0.2-0.2-0.3-0.4-0.5     c-0.2-0.1-0.4-0.3-0.6-0.4c-0.2-0.1-0.4-0.2-0.7-0.4c-0.2-0.1-0.4-0.3-0.7-0.4c-0.2-0.2-0.4-0.3-0.6-0.5     c-0.2-0.2-0.3-0.4-0.4-0.7c-0.1-0.3-0.2-0.6-0.2-0.9c0-0.4,0.1-0.8,0.2-1.2c0.2-0.4,0.4-0.7,0.7-1c0.3-0.3,0.7-0.5,1.1-0.7     c0.4-0.2,0.9-0.2,1.4-0.2c0.3,0,0.5,0,0.7,0.1c0.2,0,0.4,0.1,0.6,0.2c0.2,0.1,0.3,0.1,0.5,0.2c0.1,0.1,0.2,0.1,0.3,0.2     c0,0,0.1,0.1,0.1,0.1C154.3,163.5,154.3,163.6,154.3,163.6z"/>
			<path d="M161.5,165.8c0,0.1,0,0.1,0,0.2c0,0.1,0,0.1-0.1,0.2c-0.2,0.5-0.4,1-0.6,1.5c-0.2,0.5-0.4,1.1-0.7,1.6     c-0.3,0.6-0.6,1.2-1,1.8c-0.4,0.6-0.8,1.3-1.3,2c-0.8,1.1-1.2,1.7-2.1,2.8c0,0-0.1,0.1-0.1,0.1c0,0-0.1,0.1-0.2,0.1     c-0.1,0-0.2,0-0.3,0.1c-0.1,0-0.2,0-0.3,0c-0.1,0-0.3,0-0.4,0c-0.1,0-0.2,0-0.2-0.1c0,0-0.1-0.1-0.1-0.1c0-0.1,0-0.1,0.1-0.2     c0.8-1,1.2-1.5,1.9-2.5c-0.5-2.8-0.7-4.2-1.2-7c0-0.1,0-0.1,0-0.2c0-0.1,0-0.1,0-0.1c0-0.1,0-0.1,0-0.1c0,0,0.1-0.1,0.1-0.1     c0.1,0,0.1,0,0.2,0c0.1,0,0.2,0,0.3,0c0.1,0,0.3,0,0.3,0c0.1,0,0.1,0,0.2,0c0,0,0.1,0,0.1,0.1c0,0,0,0.1,0,0.1     c0.4,2.3,0.6,3.5,0.9,5.8c0,0,0,0,0,0c0.3-0.5,0.6-0.9,0.9-1.4c0.3-0.5,0.5-1,0.7-1.5c0.2-0.5,0.4-1,0.6-1.5     c0.2-0.5,0.4-1,0.5-1.5c0,0,0-0.1,0.1-0.1c0,0,0.1-0.1,0.1-0.1c0.1,0,0.1,0,0.2,0c0.1,0,0.2,0,0.4,0c0.2,0,0.4,0,0.5,0.1     C161.5,165.7,161.5,165.7,161.5,165.8z"/>
			<path d="M163.3,173c0,0,0,0.1-0.1,0.1c0,0-0.1,0.1-0.1,0.1s-0.1,0-0.2,0c-0.1,0-0.2,0-0.3,0c-0.1,0-0.2,0-0.3,0     c-0.1,0-0.1,0-0.2,0c0,0-0.1,0-0.1-0.1c0,0,0-0.1,0-0.1c0.8-4.3,1.3-6.4,2.1-10.6c0,0,0-0.1,0.1-0.1s0.1-0.1,0.1-0.1     c0.1,0,0.1,0,0.2,0c0.1,0,0.2,0,0.3,0c0.1,0,0.2,0,0.3,0c0.1,0,0.1,0,0.2,0c0,0,0.1,0,0.1,0.1c0,0,0,0.1,0,0.1     C164.5,166.6,164.1,168.8,163.3,173z"/>
			<path d="M172.6,165.9c0,0.1,0,0.1,0,0.2c0,0.1,0,0.1-0.1,0.2c-0.2,0.6-0.4,1.2-0.7,1.7c-0.2,0.6-0.5,1.2-0.8,1.8     c-0.3,0.6-0.6,1.2-1,1.7c-0.4,0.6-0.8,1.1-1.2,1.6c0,0.1-0.1,0.1-0.1,0.1c0,0-0.1,0.1-0.2,0.1c-0.1,0-0.1,0-0.2,0     c-0.1,0-0.2,0-0.3,0c-0.2,0-0.3,0-0.4,0c-0.1,0-0.2,0-0.2-0.1c-0.1,0-0.1-0.1-0.1-0.1c0,0,0-0.1,0-0.1c-0.4-2.7-0.6-4.1-1.1-6.8     c0-0.1,0-0.1,0-0.2c0,0,0-0.1,0-0.1c0-0.1,0-0.1,0-0.2s0.1-0.1,0.1-0.1c0,0,0.1,0,0.2,0c0.1,0,0.2,0,0.3,0s0.3,0,0.3,0     c0.1,0,0.1,0,0.2,0c0,0,0.1,0,0.1,0.1c0,0,0,0.1,0,0.1c0.3,2.4,0.5,3.6,0.9,5.9c0,0,0,0.1,0,0.1c0,0,0,0,0,0     c0.3-0.5,0.6-0.9,0.9-1.4c0.3-0.4,0.5-0.9,0.7-1.4c0.2-0.5,0.4-1,0.6-1.5c0.2-0.5,0.4-1.1,0.6-1.7c0,0,0-0.1,0.1-0.1     c0,0,0.1-0.1,0.1-0.1c0.1,0,0.1,0,0.2,0c0.1,0,0.2,0,0.3,0c0.1,0,0.2,0,0.3,0c0.1,0,0.1,0,0.2,0     C172.5,165.8,172.5,165.8,172.6,165.9C172.6,165.8,172.6,165.9,172.6,165.9z"/>
			<path d="M174.3,173.2c0,0,0,0.1-0.1,0.1c0,0-0.1,0.1-0.1,0.1c-0.1,0-0.1,0-0.2,0c-0.1,0-0.2,0-0.3,0c-0.1,0-0.2,0-0.3,0     c-0.1,0-0.1,0-0.2-0.1c0,0-0.1,0-0.1-0.1c0,0,0-0.1,0-0.1c0.6-2.9,0.9-4.3,1.4-7.1c0,0,0-0.1,0-0.1c0,0,0.1-0.1,0.1-0.1     c0.1,0,0.1,0,0.2,0c0.1,0,0.2,0,0.3,0c0.1,0,0.2,0,0.3,0c0.1,0,0.1,0,0.2,0.1c0,0,0.1,0,0.1,0.1c0,0,0,0.1,0,0.1     C175.1,168.9,174.9,170.3,174.3,173.2z M176.3,163.6c0,0.1-0.1,0.3-0.1,0.4c0,0.1-0.1,0.2-0.2,0.2c-0.1,0.1-0.2,0.1-0.3,0.1     c-0.1,0-0.2,0-0.4,0c-0.2,0-0.3,0-0.4,0s-0.2-0.1-0.2-0.1c0-0.1-0.1-0.1-0.1-0.2c0-0.1,0-0.2,0-0.4c0-0.1,0.1-0.3,0.1-0.4     c0-0.1,0.1-0.2,0.2-0.2c0.1-0.1,0.2-0.1,0.3-0.1c0.1,0,0.2,0,0.4,0c0.2,0,0.3,0,0.4,0c0.1,0,0.2,0.1,0.2,0.1     c0.1,0.1,0.1,0.2,0.1,0.2C176.4,163.3,176.4,163.5,176.3,163.6z"/>
			<path d="M182.7,173.3c0,0.1-0.1,0.2-0.2,0.2c-0.1,0-0.3,0-0.5,0c-0.1,0-0.2,0-0.3,0c-0.1,0-0.1,0-0.2,0c0,0-0.1,0-0.1-0.1     c0,0,0-0.1,0-0.1c0.1-0.5,0.2-0.8,0.3-1.3c-0.1,0.2-0.2,0.4-0.4,0.5c-0.2,0.2-0.4,0.4-0.6,0.5c-0.2,0.2-0.5,0.3-0.8,0.4     c-0.3,0.1-0.6,0.2-0.9,0.1c-0.4,0-0.8-0.1-1.1-0.2c-0.3-0.2-0.5-0.4-0.7-0.6c-0.2-0.2-0.3-0.5-0.3-0.8c-0.1-0.3-0.1-0.6-0.1-0.9     c0-0.3,0-0.6,0.1-1c0.1-0.4,0.1-0.8,0.3-1.1c0.1-0.4,0.3-0.8,0.5-1.1c0.2-0.4,0.4-0.7,0.7-1c0.3-0.3,0.6-0.5,1-0.7     c0.4-0.2,0.8-0.2,1.3-0.2c0.5,0,0.9,0.1,1.2,0.3c0.3,0.2,0.6,0.5,0.9,0.8c0.1-0.3,0.1-0.4,0.2-0.7c0-0.1,0.1-0.1,0.2-0.2     c0.1,0,0.3,0,0.5,0c0.1,0,0.2,0,0.3,0c0.1,0,0.1,0,0.2,0c0,0,0.1,0,0.1,0.1c0,0,0,0.1,0,0.1C183.5,169.1,183.3,170.5,182.7,173.3     z M182.4,168c-0.3-0.4-0.5-0.7-0.8-0.8c-0.3-0.2-0.6-0.3-1-0.3c-0.3,0-0.5,0.1-0.8,0.2c-0.2,0.1-0.4,0.3-0.6,0.5     c-0.2,0.2-0.3,0.5-0.5,0.8c-0.1,0.3-0.2,0.6-0.3,0.9c-0.1,0.3-0.1,0.6-0.2,0.9c0,0.3-0.1,0.6-0.1,0.8c0,0.2,0,0.4,0,0.6     c0,0.2,0.1,0.4,0.2,0.5s0.2,0.3,0.3,0.4c0.1,0.1,0.3,0.1,0.6,0.2c0.3,0,0.6-0.1,0.9-0.2c0.3-0.2,0.6-0.4,0.8-0.7     c0.3-0.3,0.5-0.6,0.7-1c0.2-0.4,0.3-0.8,0.4-1.3C182.3,168.8,182.3,168.6,182.4,168z"/>
			<path d="M200.2,174c0,0,0,0.1-0.1,0.1c0,0-0.1,0.1-0.1,0.1c-0.1,0-0.1,0-0.2,0c-0.1,0-0.2,0-0.3,0c-0.1,0-0.2,0-0.3,0     c-0.1,0-0.2,0-0.2-0.1c0,0-0.1,0-0.1-0.1c0,0,0-0.1,0-0.1c0.7-3.6,1.1-5.3,1.8-8.9c0,0,0,0,0,0c-2.2,3.5-3.3,5.3-5.5,8.8     c0,0.1-0.1,0.1-0.2,0.2c-0.1,0-0.3,0-0.5,0c-0.2,0-0.4,0-0.5-0.1c-0.1,0-0.1-0.1-0.1-0.2c-0.7-3.6-1-5.4-1.7-9.1c0,0,0,0,0,0     c-0.7,3.6-1.1,5.4-1.8,8.9c0,0,0,0.1-0.1,0.1c0,0-0.1,0.1-0.1,0.1c-0.1,0-0.1,0-0.2,0c-0.1,0-0.2,0-0.3,0c-0.1,0-0.2,0-0.3,0     c-0.1,0-0.2,0-0.2-0.1c0,0-0.1,0-0.1-0.1c0,0,0-0.1,0-0.1c0.8-3.8,1.1-5.7,1.9-9.4c0-0.1,0.1-0.2,0.1-0.3c0-0.1,0.1-0.1,0.2-0.2     c0.1,0,0.1-0.1,0.2-0.1c0.1,0,0.1,0,0.2,0c0.3,0,0.5,0,0.8,0c0.2,0,0.3,0,0.4,0.1c0.1,0,0.2,0.1,0.3,0.2c0.1,0.1,0.1,0.2,0.2,0.3     c0,0.1,0.1,0.2,0.1,0.4c0.6,3,0.9,4.5,1.5,7.5c0,0,0,0,0,0c1.8-2.9,2.8-4.4,4.6-7.3c0.1-0.1,0.2-0.3,0.2-0.4     c0.1-0.1,0.2-0.2,0.3-0.3c0.1-0.1,0.2-0.1,0.3-0.1c0.1,0,0.3,0,0.4,0c0.4,0,0.5,0,0.9,0c0.1,0,0.2,0,0.2,0c0.1,0,0.1,0.1,0.2,0.1     c0,0.1,0.1,0.1,0.1,0.2c0,0.1,0,0.2,0,0.3C201.3,168.3,200.9,170.2,200.2,174z"/>
			<path d="M204.1,174.2c0,0,0,0.1-0.1,0.1c0,0-0.1,0.1-0.1,0.1c-0.1,0-0.1,0-0.2,0c-0.1,0-0.2,0-0.3,0c-0.1,0-0.2,0-0.3,0     c-0.1,0-0.1,0-0.2-0.1c0,0-0.1-0.1-0.1-0.1c0,0,0-0.1,0-0.1c0.6-2.8,0.9-4.3,1.4-7.1c0,0,0-0.1,0-0.1c0,0,0.1-0.1,0.1-0.1     c0.1,0,0.1,0,0.2,0c0.1,0,0.2,0,0.3,0c0.1,0,0.2,0,0.3,0c0.1,0,0.1,0,0.2,0.1c0,0,0.1,0.1,0.1,0.1c0,0,0,0.1,0,0.1     C204.9,169.9,204.7,171.3,204.1,174.2z M206.2,164.7c0,0.1-0.1,0.3-0.1,0.4c0,0.1-0.1,0.2-0.2,0.2c-0.1,0.1-0.2,0.1-0.3,0.1     c-0.1,0-0.2,0-0.4,0c-0.2,0-0.3,0-0.4-0.1c-0.1,0-0.2-0.1-0.2-0.1c0-0.1-0.1-0.1-0.1-0.2c0-0.1,0-0.2,0-0.4     c0-0.1,0.1-0.3,0.1-0.4c0-0.1,0.1-0.2,0.2-0.2c0.1-0.1,0.2-0.1,0.3-0.1c0.1,0,0.2,0,0.4,0c0.2,0,0.3,0,0.4,0.1     c0.1,0,0.2,0.1,0.2,0.1c0.1,0.1,0.1,0.2,0.1,0.3C206.2,164.4,206.2,164.5,206.2,164.7z"/>
			<path d="M213.5,169.1c0,0.2,0,0.4,0,0.5c0,0.2-0.1,0.4-0.1,0.6c-0.4,1.8-0.5,2.7-0.9,4.4c0,0,0,0.1-0.1,0.1c0,0-0.1,0.1-0.1,0.1     c-0.1,0-0.1,0-0.2,0c-0.1,0-0.2,0-0.3,0c-0.1,0-0.2,0-0.3,0c-0.1,0-0.1,0-0.2-0.1c0,0-0.1-0.1-0.1-0.1c0,0,0-0.1,0-0.1     c0.4-1.8,0.5-2.6,0.9-4.4c0-0.2,0.1-0.3,0.1-0.5c0-0.2,0-0.3,0-0.4c0-0.3-0.1-0.6-0.2-0.8c-0.1-0.2-0.4-0.3-0.7-0.3     c-0.3,0-0.6,0.1-0.9,0.2c-0.3,0.1-0.6,0.4-0.8,0.6c-0.3,0.3-0.5,0.6-0.7,1c-0.2,0.4-0.3,0.8-0.4,1.2c-0.3,1.3-0.4,1.9-0.6,3.2     c0,0,0,0.1-0.1,0.1c0,0-0.1,0.1-0.1,0.1c-0.1,0-0.1,0-0.2,0c-0.1,0-0.2,0-0.3,0c-0.1,0-0.2,0-0.3,0c-0.1,0-0.1,0-0.2-0.1     c0,0-0.1-0.1-0.1-0.1c0,0,0-0.1,0-0.1c0.6-2.8,0.9-4.3,1.4-7.1c0,0,0-0.1,0-0.1c0,0,0.1-0.1,0.1-0.1c0.1,0,0.1,0,0.2,0     c0.1,0,0.2,0,0.3,0c0.1,0,0.2,0,0.3,0c0.1,0,0.1,0,0.2,0.1c0,0,0.1,0.1,0.1,0.1c0,0,0,0.1,0,0.1c-0.1,0.5-0.2,0.8-0.3,1.4     c0.1-0.2,0.2-0.4,0.4-0.6c0.2-0.2,0.4-0.4,0.6-0.5c0.2-0.2,0.5-0.3,0.8-0.4c0.3-0.1,0.6-0.1,0.9-0.1c0.4,0,0.7,0.1,0.9,0.2     c0.2,0.1,0.4,0.3,0.6,0.5c0.1,0.2,0.3,0.4,0.3,0.6C213.5,168.6,213.5,168.8,213.5,169.1z"/>
			<path d="M220.9,175.1c0,0.1-0.1,0.1-0.2,0.2c-0.1,0-0.3,0-0.5,0c-0.1,0-0.2,0-0.3,0c-0.1,0-0.1,0-0.2-0.1c0,0-0.1,0-0.1-0.1     c0,0,0-0.1,0-0.1c0.1-0.5,0.2-0.8,0.3-1.3c-0.1,0.2-0.2,0.4-0.4,0.5c-0.2,0.2-0.4,0.4-0.6,0.5c-0.2,0.2-0.5,0.3-0.8,0.4     c-0.3,0.1-0.6,0.1-0.9,0.1c-0.3,0-0.6-0.1-0.8-0.2c-0.2-0.1-0.4-0.2-0.6-0.4c-0.2-0.1-0.3-0.3-0.4-0.5c-0.1-0.2-0.2-0.4-0.2-0.6     c-0.1-0.2-0.1-0.4-0.1-0.6c0-0.2,0-0.4,0-0.5c0-0.3,0-0.7,0.1-1c0.1-0.4,0.2-0.8,0.3-1.1c0.1-0.4,0.3-0.7,0.5-1.1     c0.2-0.4,0.4-0.7,0.7-0.9c0.3-0.3,0.6-0.5,1-0.6c0.4-0.2,0.8-0.2,1.3-0.2c0.2,0,0.4,0.1,0.6,0.1c0.2,0.1,0.4,0.1,0.5,0.2     c0.2,0.1,0.3,0.2,0.5,0.3c0.1,0.1,0.3,0.3,0.4,0.4c0.3-1.6,0.5-2.4,0.8-4c0,0,0-0.1,0-0.1c0,0,0.1-0.1,0.1-0.1c0.1,0,0.1,0,0.2,0     c0.1,0,0.2,0,0.3,0c0.1,0,0.2,0,0.3,0c0.1,0,0.1,0,0.2,0.1c0,0,0.1,0.1,0.1,0.1c0,0,0,0.1,0,0.1     C222.1,168.8,221.7,170.9,220.9,175.1z M220.6,169.8c-0.3-0.4-0.5-0.7-0.8-0.9c-0.3-0.2-0.6-0.3-1-0.3c-0.3,0-0.5,0-0.8,0.1     c-0.2,0.1-0.4,0.3-0.6,0.5s-0.3,0.4-0.5,0.7c-0.1,0.3-0.2,0.6-0.3,0.9c-0.1,0.3-0.1,0.6-0.2,0.9c0,0.3-0.1,0.6-0.1,0.8     c0,0.5,0.1,0.9,0.3,1.2c0.2,0.3,0.5,0.4,0.8,0.5c0.3,0,0.6,0,0.9-0.2c0.3-0.1,0.6-0.3,0.8-0.6c0.3-0.3,0.5-0.6,0.7-1     c0.2-0.4,0.3-0.8,0.4-1.2C220.5,170.6,220.5,170.3,220.6,169.8z"/>
			<path d="M230.2,170c0,0.4-0.1,0.7-0.3,1c-0.2,0.3-0.4,0.5-0.8,0.7c-0.4,0.2-0.8,0.3-1.4,0.4c-0.6,0.1-1.2,0.1-2,0     c-0.3,0-0.5,0-0.8-0.1c0,0.2-0.1,0.3-0.1,0.5c0,0.2,0,0.3,0,0.5c0,0.5,0.1,0.9,0.4,1.2c0.3,0.3,0.7,0.5,1.3,0.5     c0.3,0,0.6,0,0.9,0c0.3,0,0.5-0.1,0.7-0.1c0.2,0,0.4-0.1,0.5-0.1c0.1,0,0.2-0.1,0.3-0.1c0,0,0.1,0,0.1,0.1c0,0,0,0.1,0,0.1     c0,0.1,0,0.1,0,0.2c0,0.1,0,0.1,0,0.2c0,0.1,0,0.1-0.1,0.2c0,0.1-0.1,0.1-0.1,0.2c-0.1,0.1-0.2,0.1-0.3,0.2     c-0.2,0-0.4,0.1-0.6,0.1c-0.2,0-0.5,0.1-0.7,0.1c-0.3,0-0.5,0-0.8,0c-0.5,0-0.9-0.1-1.2-0.2c-0.4-0.1-0.7-0.3-0.9-0.5     c-0.2-0.2-0.4-0.5-0.5-0.9c-0.1-0.3-0.2-0.7-0.2-1.2c0-0.3,0-0.7,0.1-1.1c0.1-0.4,0.2-0.8,0.3-1.2c0.1-0.4,0.3-0.7,0.6-1.1     c0.2-0.3,0.5-0.6,0.8-0.9c0.3-0.2,0.7-0.4,1.1-0.6c0.4-0.1,0.9-0.2,1.4-0.1c0.4,0,0.8,0.1,1.1,0.2c0.3,0.1,0.6,0.3,0.8,0.5     c0.2,0.2,0.3,0.4,0.4,0.6C230.1,169.6,230.2,169.8,230.2,170z M228.8,170c0-0.3-0.1-0.5-0.3-0.7c-0.2-0.2-0.5-0.3-0.9-0.3     c-0.3,0-0.7,0-0.9,0.1c-0.3,0.1-0.5,0.2-0.7,0.4c-0.2,0.2-0.4,0.4-0.5,0.7c-0.1,0.3-0.3,0.5-0.4,0.8c0.3,0,0.5,0,0.8,0.1     c0.6,0,1,0,1.4,0c0.4,0,0.7-0.1,0.9-0.2c0.2-0.1,0.4-0.2,0.5-0.4C228.8,170.4,228.8,170.2,228.8,170z"/>
			<path d="M241.6,176.6c0,0,0,0.1,0,0.1c0,0-0.1,0-0.1,0.1c-0.1,0-0.1,0-0.2,0c-0.1,0-0.2,0-0.3,0c-0.1,0-0.2,0-0.3,0     c-0.1,0-0.1,0-0.2-0.1c0,0-0.1-0.1-0.1-0.1c0,0,0-0.1,0-0.1c0.4-1.7,0.5-2.6,0.9-4.4c0-0.2,0-0.3,0.1-0.4c0-0.1,0-0.3,0-0.4     c0-0.3-0.1-0.6-0.2-0.8c-0.1-0.2-0.4-0.3-0.7-0.4c-0.3,0-0.5,0-0.8,0.2c-0.3,0.1-0.6,0.3-0.8,0.6c-0.3,0.3-0.5,0.6-0.7,1     c-0.2,0.4-0.3,0.8-0.4,1.2c-0.3,1.3-0.4,1.9-0.6,3.2c0,0,0,0.1-0.1,0.1c0,0-0.1,0-0.1,0.1c-0.1,0-0.1,0-0.2,0c-0.1,0-0.2,0-0.3,0     c-0.1,0-0.2,0-0.3,0c-0.1,0-0.1,0-0.2-0.1c0,0-0.1-0.1-0.1-0.1c0,0,0-0.1,0-0.1c0.4-1.7,0.5-2.6,0.9-4.4c0-0.2,0.1-0.3,0.1-0.5     c0-0.2,0-0.3,0-0.4c0-0.3-0.1-0.6-0.2-0.8c-0.1-0.2-0.4-0.3-0.7-0.3c-0.3,0-0.5,0-0.8,0.2c-0.3,0.1-0.5,0.3-0.8,0.6     c-0.3,0.3-0.5,0.6-0.7,1c-0.2,0.4-0.3,0.8-0.4,1.2c-0.3,1.3-0.4,1.9-0.6,3.2c0,0,0,0.1-0.1,0.1c0,0-0.1,0-0.1,0.1     c-0.1,0-0.1,0-0.2,0c-0.1,0-0.2,0-0.3,0c-0.1,0-0.2,0-0.3,0c-0.1,0-0.1,0-0.2-0.1c0,0-0.1-0.1-0.1-0.1c0,0,0-0.1,0-0.1     c0.6-2.8,0.9-4.2,1.4-7.1c0,0,0-0.1,0-0.1c0,0,0.1-0.1,0.1-0.1c0.1,0,0.1,0,0.2,0c0.1,0,0.2,0,0.3,0c0.1,0,0.2,0,0.3,0     c0.1,0,0.1,0,0.2,0.1c0,0,0.1,0.1,0.1,0.1c0,0,0,0.1,0,0.1c-0.1,0.5-0.2,0.8-0.3,1.3c0.1-0.2,0.2-0.4,0.4-0.5     c0.2-0.2,0.4-0.4,0.6-0.5c0.2-0.2,0.5-0.3,0.8-0.4c0.3-0.1,0.6-0.1,0.9-0.1c0.3,0,0.6,0.1,0.8,0.2c0.2,0.1,0.4,0.2,0.6,0.4     c0.1,0.2,0.3,0.4,0.3,0.6c0.1,0.2,0.1,0.4,0.1,0.7c0.1-0.2,0.3-0.4,0.4-0.5c0.2-0.2,0.4-0.4,0.6-0.5c0.2-0.1,0.5-0.3,0.8-0.4     c0.3-0.1,0.6-0.1,0.9-0.1c0.4,0,0.7,0.1,0.9,0.2c0.2,0.1,0.4,0.3,0.6,0.5c0.1,0.2,0.3,0.4,0.3,0.6c0.1,0.2,0.1,0.5,0.1,0.8     c0,0.2,0,0.4,0,0.5c0,0.2-0.1,0.4-0.1,0.6C242.1,174,241.9,174.9,241.6,176.6z"/>
			<path d="M249.9,177.4c0,0.1-0.1,0.1-0.2,0.2c-0.1,0-0.3,0-0.5,0c-0.1,0-0.2,0-0.3,0c-0.1,0-0.1,0-0.2-0.1c0,0-0.1,0-0.1-0.1     c0,0,0-0.1,0-0.1c0.1-0.5,0.2-0.8,0.3-1.3c-0.1,0.2-0.2,0.3-0.4,0.5c-0.2,0.2-0.4,0.4-0.6,0.5c-0.2,0.1-0.5,0.3-0.8,0.3     c-0.3,0.1-0.6,0.1-0.9,0.1c-0.4,0-0.8-0.1-1.1-0.3c-0.3-0.2-0.5-0.4-0.7-0.6c-0.2-0.3-0.3-0.5-0.3-0.9c-0.1-0.3-0.1-0.6-0.1-1     c0-0.3,0-0.6,0.1-1c0.1-0.4,0.1-0.7,0.3-1.1c0.1-0.4,0.3-0.8,0.5-1.1c0.2-0.4,0.4-0.7,0.7-0.9s0.6-0.5,1-0.6     c0.4-0.1,0.8-0.2,1.3-0.2c0.5,0,0.9,0.2,1.2,0.4c0.3,0.2,0.6,0.5,0.9,0.9c0.1-0.3,0.1-0.4,0.2-0.7c0-0.1,0.1-0.1,0.2-0.2     c0.1,0,0.3,0,0.5,0c0.1,0,0.2,0,0.3,0c0.1,0,0.1,0,0.2,0.1c0,0,0.1,0.1,0.1,0.1c0,0,0,0.1,0,0.1     C250.8,173.1,250.5,174.5,249.9,177.4z M249.7,172c-0.2-0.4-0.5-0.7-0.8-0.9c-0.3-0.2-0.6-0.3-1-0.4c-0.3,0-0.5,0-0.8,0.1     c-0.2,0.1-0.4,0.3-0.6,0.5c-0.2,0.2-0.3,0.4-0.5,0.7c-0.1,0.3-0.2,0.6-0.3,0.9c-0.1,0.3-0.1,0.6-0.2,0.9c0,0.3-0.1,0.5-0.1,0.8     c0,0.2,0,0.4,0,0.6c0,0.2,0.1,0.4,0.2,0.5c0.1,0.2,0.2,0.3,0.3,0.4c0.1,0.1,0.3,0.2,0.6,0.2c0.3,0,0.6,0,0.9-0.2     c0.3-0.1,0.6-0.3,0.8-0.6c0.3-0.3,0.5-0.6,0.7-1c0.2-0.4,0.3-0.8,0.4-1.2C249.5,172.8,249.6,172.6,249.7,172z"/>
			<path d="M259.4,172.7c0,0.2,0,0.4,0,0.5c0,0.2-0.1,0.4-0.1,0.5c-0.4,1.8-0.5,2.6-0.9,4.4c0,0,0,0.1-0.1,0.1c0,0-0.1,0-0.1,0.1     c-0.1,0-0.1,0-0.2,0c-0.1,0-0.2,0-0.3,0c-0.1,0-0.2,0-0.3,0c-0.1,0-0.1,0-0.2-0.1c0,0-0.1-0.1-0.1-0.1c0,0,0-0.1,0-0.1     c0.4-1.7,0.5-2.6,0.9-4.3c0-0.2,0.1-0.3,0.1-0.5c0-0.2,0-0.3,0-0.4c0-0.3-0.1-0.6-0.2-0.8c-0.1-0.2-0.4-0.3-0.7-0.4     c-0.3,0-0.6,0-0.9,0.2c-0.3,0.1-0.6,0.3-0.8,0.6c-0.3,0.3-0.5,0.6-0.7,0.9c-0.2,0.4-0.3,0.8-0.4,1.2c-0.3,1.3-0.4,1.9-0.6,3.1     c0,0,0,0.1-0.1,0.1c0,0-0.1,0-0.1,0.1c-0.1,0-0.1,0-0.2,0c-0.1,0-0.2,0-0.3,0c-0.1,0-0.2,0-0.3,0c-0.1,0-0.1,0-0.2-0.1     c0,0-0.1-0.1-0.1-0.1c0,0,0-0.1,0-0.1c0.6-2.8,0.9-4.2,1.4-7c0,0,0-0.1,0-0.1c0,0,0.1-0.1,0.1-0.1c0.1,0,0.1,0,0.2,0     c0.1,0,0.2,0,0.3,0c0.1,0,0.2,0,0.3,0c0.1,0,0.1,0,0.2,0.1s0.1,0.1,0.1,0.1c0,0,0,0.1,0,0.1c-0.1,0.5-0.2,0.8-0.3,1.3     c0.1-0.2,0.2-0.4,0.4-0.5c0.2-0.2,0.4-0.3,0.6-0.5c0.2-0.1,0.5-0.3,0.8-0.3c0.3-0.1,0.6-0.1,0.9-0.1c0.4,0,0.7,0.1,0.9,0.3     c0.2,0.1,0.4,0.3,0.6,0.5c0.1,0.2,0.3,0.4,0.3,0.6C259.3,172.2,259.4,172.4,259.4,172.7z"/>
			<path d="M267.7,173.6c0,0.2,0,0.4,0,0.5c0,0.2-0.1,0.4-0.1,0.5c-0.4,1.8-0.5,2.6-0.9,4.4c0,0,0,0.1-0.1,0.1c0,0-0.1,0-0.1,0.1     c-0.1,0-0.1,0-0.2,0c-0.1,0-0.2,0-0.3,0c-0.1,0-0.2,0-0.3-0.1c-0.1,0-0.1,0-0.2-0.1c0,0-0.1-0.1-0.1-0.1c0,0,0-0.1,0-0.1     c0.4-1.7,0.5-2.6,0.9-4.3c0-0.2,0.1-0.3,0.1-0.5s0-0.3,0-0.4c0-0.3-0.1-0.6-0.2-0.8c-0.1-0.2-0.4-0.3-0.7-0.4     c-0.3,0-0.6,0-0.9,0.2c-0.3,0.1-0.6,0.3-0.8,0.6c-0.3,0.3-0.5,0.6-0.7,0.9c-0.2,0.4-0.3,0.8-0.4,1.2c-0.3,1.3-0.4,1.9-0.6,3.1     c0,0,0,0.1-0.1,0.1c0,0-0.1,0-0.1,0.1s-0.1,0-0.2,0c-0.1,0-0.2,0-0.3,0c-0.1,0-0.2,0-0.3,0c-0.1,0-0.1,0-0.2-0.1     c0,0-0.1-0.1-0.1-0.1c0,0,0-0.1,0-0.1c0.6-2.8,0.9-4.2,1.4-7c0,0,0-0.1,0-0.1c0,0,0.1-0.1,0.1-0.1c0.1,0,0.1,0,0.2,0     c0.1,0,0.2,0,0.3,0c0.1,0,0.2,0,0.3,0c0.1,0,0.1,0,0.2,0.1c0,0,0.1,0.1,0.1,0.1c0,0,0,0.1,0,0.1c-0.1,0.5-0.2,0.8-0.3,1.3     c0.1-0.2,0.2-0.3,0.4-0.5c0.2-0.2,0.4-0.3,0.6-0.5s0.5-0.3,0.8-0.3c0.3-0.1,0.6-0.1,0.9-0.1c0.4,0,0.7,0.1,0.9,0.3     c0.2,0.1,0.4,0.3,0.6,0.5c0.1,0.2,0.3,0.4,0.3,0.7C267.7,173.1,267.7,173.3,267.7,173.6z"/>
		</g>
	</g>
	<g>
		<path fill-rule="evenodd" clip-rule="evenodd" stroke="#000000" stroke-width="0.216" stroke-miterlimit="22.9256" d="M110.6,54.6    c0-0.1,0.1-0.1,0.1-0.2c-0.8-0.7-1.6-1.2-2.3-2c-1.9,0-8.6,0.2-9.5-2c-1.8-1.3-1.8-1.3-2.4-1.9c-1.9-0.7-2.1-1.5-3.5-2.5    c-0.1-1-0.7-1-1.2-1.8c0.1-0.1,0.3-0.1,0.4-0.2c-0.6-0.5-1.1-0.9-1.2-1.6c3.1,2.4,6.7,3.2,10.5,3.3c0-0.1,0-0.2,0-0.3    c-0.4-0.2-0.8-0.4-1.1-0.6c0-0.2,0-0.4,0-0.5c0.1-0.1,0.2-0.1,0.4-0.2c-1-0.5-3-1-3-2.3c0.1-0.1,0.2-0.2,0.3-0.3    c-1-0.6-2.1-1.1-3.1-1.7c0-0.1,0-0.2,0-0.3c-0.6-0.2-0.6-0.5-0.5-1.1c0.1,0,0.2,0,0.3,0c-0.2,1.3,2.5,2.7,3.3,2.5    c0-0.1,0-0.3,0-0.4c-0.7-0.4-1.2-0.7-1.8-1.3c0-0.3,0-0.5,0-0.8c-0.9-0.3-2.6-1.2-2.3-2.3c0.4,0.9,2.4,2.6,3.4,2.4    c0-0.2,0-0.4,0-0.7c0.4-0.1,0.7-0.1,1.1-0.2c0,0.1,0,0.2,0,0.3c-0.3,0-0.6,0-0.9,0c0.7,1.4,3.1,1.7,3.6,3c-0.1,0-0.2,0-0.3,0    c0.4,1,1.6,1.5,2.5,2c-0.2,0.1-0.3,0.1-0.5,0.2c0.6,1,1.2,1.5,2.2,2.2c0,0.2,0,0.4,0.1,0.6c-0.8-0.7-2.5-1.6-2.5-2.9    c-0.6-0.4-1.2-0.9-1.9-1.3c-0.6-1.6-2.7-3-4.3-2.8c1.7,1.2,1.7,1.2,2.8,1.9c-0.2,0.2-0.7,0.2-0.9,0.3c1,0.8,2.1,1.3,3.3,1.8    c0,0.1,0,0.2,0,0.3c-0.2,0-0.3,0-0.5,0.1c0.3,0.3,0.3,0.3,0.6,0.4c0,0.1,0,0.2,0,0.3c0.7,0.4,1.4,0.7,2,1.1c0,0.1,0,0.2,0,0.3    c-0.2,0-0.4,0.1-0.6,0.1c0.2,0.6,2.1,1.8,2.8,1.9c-0.1,0.3-0.1,0.3-0.3,0.4c-1.1-0.7-1.1-0.7-2.7-2c0-0.3-0.1-0.6-0.1-0.9    c-0.5-0.3-1-0.7-1.5-1c-0.3,0.1-0.6,0.2-0.9,0.2c0,0.1,0,0.2,0,0.3c1.1,0.6,1.1,0.6,1.6,0.6c0,0.1,0,0.2,0,0.3    c-0.2,0-0.3,0-0.5,0.1c0.2,0.1,0.8,0.2,0.8,0.4c-0.3,0-0.3,0-0.3,0.2c0.3,0.1,0.5,0.3,0.8,0.4c-0.1,0-0.1,0.1-0.2,0.2    c0.6,0.4,1.5,0.7,1.7,1.3c0.4,0.1,0.9,0.3,1.3,0.4c0,0.1,0.1,0.2,0.1,0.3c-0.9-0.2-0.9-0.2-2.3-0.9c0-0.1,0-0.2,0-0.3    c-0.8-0.3-1.2-1-2-1.5c-3.7-0.3-3.7-0.3-5.3-0.6c-2.2-0.8-2.2-0.8-2.7-0.8c0.2,0.1,0.3,0.2,0.5,0.2c0,0.1,0,0.2,0,0.3    c-0.6-0.1-0.9-0.6-1.6-0.6c0.5,0.3,1.1,0.7,1.6,1c0,0.1,0,0.2-0.1,0.2c-0.3-0.1-0.6-0.1-0.9-0.2c0.6,0.6,1.3,0.9,2,1    c0,0.1,0,0.3,0,0.5c-0.2,0-0.4,0-0.6,0c0,0.4,1.2,0.6,1.6,0.6c1.8,1.6,3.6,2.8,5.7,3.9c2.6,0.7,5.4,0.6,8,0.2    c1.8-0.6,3.6-1.3,5.4-1.9c2.6,0.3,2.6,0.3,4.9,0.8c-1.5-0.6-2.9-1-4.5-1.2c0-0.1,0-0.2,0-0.3c0.2-0.1,0.4-0.2,0.7-0.3    c0,0.1,0.1,0.2,0.1,0.3c1.5,0.4,3.4,0.6,4.6,1.8c-0.1-0.5,0-0.8-0.4-1.2c-0.1,0.1-0.1,0.2-0.2,0.3c-0.1-0.2-0.1-0.3-0.2-0.5    c-1.1-0.3-2-0.6-3-1.1c-0.7,0.1-1.5,0.3-2.2,0.4c0,0.2,0,0.3,0,0.5c-0.1,0-0.2,0-0.3,0c0-0.2,0-0.4,0-0.6c0.3-0.1,0.6-0.2,0.9-0.2    c-0.1-0.1-0.2-0.1-0.4-0.2c0-0.2,0-0.4,0-0.7c0,0.2,0.1,0.3,0.1,0.5c0.3,0,0.6,0.1,0.8,0.1c0-0.2,0-0.2-0.3-0.2    c0.1-0.5,0.1-0.5,0.3-0.7c-0.1,0-0.3-0.1-0.4-0.1c0.1-0.1,0.2-0.2,0.3-0.2c-0.5-0.5-4.5,0-5.5-0.1c0.2,0.1,0.4,0.3,0.6,0.5    c-0.3,0-0.5-0.1-0.8-0.1c0-0.1,0-0.2,0-0.3c-0.5-0.4-1-0.7-1.2-1.3c0.1,0,0.2,0,0.3,0c0,0.1,0,0.2,0,0.3c0.1,0,0.2,0,0.3,0    c0,0.1,0,0.2,0,0.3c2.1,0.3,3.9,0.2,6.1,0.2c0.9,0.3,1.1,0.9,1.4,1.7c2.5,1.6,4,0.2,3.8,3.6c-0.1,0-0.2,0-0.3,0    c-0.4-1.3-4.3-1.5-5.4-1.6c-1.3,0.3-1.3,0.3-2.9,1c-0.2,2.2,5.3,5.3,6.5,7.1c0.2,3.9,1.6,6.7,3.6,10c0,0.2,0,0.3,0.1,0.5    c-1.6-0.2-6.5-4.8-6.9-6.1c-0.1,0-0.2,0-0.3,0c-0.4-0.7-1.2-1.7-1.2-2.5c-0.6-0.5-0.7-0.9-1-1.6c-0.1,0-0.2-0.1-0.3-0.1    c0-0.1,0-0.2,0-0.3c-0.8-0.4-1-0.7-1.1-1.6c-0.6-0.4-1.6-1-1.6-1.7C110.4,54.7,110.5,54.6,110.6,54.6z"/>
		
			<path fill-rule="evenodd" clip-rule="evenodd" fill="#FFFFFF" stroke="#000000" stroke-width="0.216" stroke-miterlimit="22.9256" d="    M110.6,54.6c0.3,0,0.6,0.1,0.9,0.2c0-0.1,0-0.2,0-0.3c-1.7-1.2-1.7-1.2-2.8-2.1c1.2-0.3,2.4-0.7,3.6-1c0.1,1,1.1,1.6,1.6,2.5    c0.1,0,0.2,0,0.3,0c0.3,0.4,0.4,0.8,0.9,0.9c0.2,0.7,1.2,1.6,1.9,1.7c0,0.1,0,0.2,0,0.3c2.1,1,1.9,2.4,2.1,4.5    c0.2,0.7,0.4,1.5,0.6,2.2c1.2,2.5,2.2,4.1,2.2,4.4c-1.6-1.2-3.3-2.4-4.5-4.1c-0.1,0-0.2,0-0.3,0c-0.8-1.1-1.5-2.2-2.3-3.3    c0.1,0,0.2-0.1,0.3-0.1c-0.2-0.5-0.9-1.2-0.8-1.3c0.1,0,0.2-0.1,0.4-0.1c0-0.1,0-0.2,0-0.3c-0.9-0.5-1.5-0.9-2.3-1.6    c0.4,0,0.4,0,0.6-0.2C112.1,56.1,111.2,55.5,110.6,54.6z"/>
		<path fill-rule="evenodd" clip-rule="evenodd" stroke="#000000" stroke-width="0.216" stroke-miterlimit="22.9256" d="M117.6,63    c-0.9-1.1-2.3-2.4-2.3-4c-1.2-1.1-1.9-2.4-3.1-3.5c-0.1-1.2-0.9-1.5-1.6-2.4c0.6,0,1,0.3,1.5,0.6c-0.2,0-0.3,0.1-0.5,0.2    c0.8,0.6,0.8,0.6,1.1,0.7c0,0.2,0,0.3,0,0.5c-0.1,0-0.2,0-0.3,0c0,0.1,0,0.2,0,0.3c0.1,0,0.2,0,0.3,0c0.3,0.6,0.8,0.9,1.4,1.4    c0,0.2,0,0.3,0,0.5c0.8,0.7,1.5,1.3,2.3,2c-0.2,0.2-0.2,0.2-0.8,0.2c0.7,1,0.7,1,1.5,1.8c0,0.1,0,0.2,0,0.3    c-0.3-0.2-0.3-0.2-0.7-0.2c0.6,0.6,1,1.1,1.7,1.7C117.9,63,117.8,63,117.6,63z"/>
		
			<path fill-rule="evenodd" clip-rule="evenodd" fill="#FFFFFF" stroke="#000000" stroke-width="0.216" stroke-miterlimit="22.9256" d="    M94.2,35.9c-0.2,1.1,1.4,2,2.3,2.3c0,0.3,0,0.5,0,0.8c0.6,0.6,1.1,0.9,1.8,1.3c0,0.1,0,0.3,0,0.4c-0.9,0.2-3.5-1.3-3.3-2.5    c0.2-0.1,0.3-0.2,0.5-0.2c-1.3-1-4-2.2-4.5-3.8c-0.1,0-0.2,0-0.3,0c0-0.2,0-0.4,0-0.7c0.3,0,0.6,0,0.8,0c-0.4-1.5-3-2.1-2.9-4.2    c0.3,0.2,0.7,0.4,1,0.6c0,0.1,0,0.2,0,0.3c1.4,0.9,2.7,1.7,4.1,2.6c4.7,2.5,9.8,5,10.3,5.3c0.4,0.8,0.9,1.6,1.3,2.4    c2.5,3.6,3.1,4.2,3.2,4.5c0.1,0,0.2,0,0.3,0c0.1,0.2,0.2,0.3,0.3,0.5c0.1,0,0.2,0.1,0.4,0.1c0.2,0.6,0.8,0.9,1.2,1.3    c0,0.1,0,0.2,0,0.3c0.3,0,0.5,0,0.8,0.1c-0.2-0.2-0.4-0.3-0.6-0.5c1,0.1,5-0.3,5.5,0.1c-0.1,0.1-0.2,0.2-0.3,0.2    c-0.2,0.1-0.3,0.2-0.5,0.3c0,0.2,0,0.4,0,0.7c0.1,0.1,0.2,0.1,0.4,0.2c-0.3,0.1-0.6,0.2-0.9,0.2c0,0.2,0,0.4,0,0.6    c0.1,0,0.2,0,0.3,0c0-0.2,0-0.3,0-0.5c0.7-0.1,1.4-0.3,2.2-0.4c1,0.6,1.9,0.8,3,1.1c0.1,0.2,0.1,0.3,0.2,0.5    c0-0.1,0.1-0.2,0.2-0.3c0.4,0.4,0.4,0.7,0.4,1.2c-1.2-1.2-3-1.4-4.6-1.8c0-0.1-0.1-0.2-0.1-0.3c-0.2,0.1-0.4,0.2-0.7,0.3    c0,0.1,0,0.2,0,0.3c1.6,0.1,3,0.6,4.5,1.2c-2.3-0.5-2.3-0.5-4.9-0.8c-1.8,0.6-3.6,1.2-5.4,1.9c-2.6,0.5-5.4,0.6-8-0.2    c-2.1-1.1-3.9-2.3-5.7-3.9c-0.4,0-1.6-0.1-1.6-0.6c0.2,0,0.4,0,0.6,0c0-0.2,0-0.3,0-0.5c-0.7-0.2-1.5-0.5-2-1    c0.3,0,0.6,0.1,0.9,0.2c0-0.1,0-0.2,0.1-0.2c-0.6-0.3-1.1-0.7-1.6-1c0.7,0,0.9,0.5,1.6,0.6c0-0.1,0-0.2,0-0.3    c-0.2-0.1-0.3-0.2-0.5-0.2c0.5,0,0.5,0,2.7,0.8c1.6,0.3,1.6,0.3,5.3,0.6c0.8,0.5,1.2,1.2,2,1.5c0,0.1,0,0.2,0,0.3    c1.4,0.7,1.4,0.7,2.3,0.9c0-0.1-0.1-0.2-0.1-0.3c-0.4-0.1-0.9-0.3-1.3-0.4c-0.2-0.7-1.1-1-1.7-1.3c0-0.1,0.1-0.1,0.2-0.2    c-0.3-0.1-0.5-0.3-0.8-0.4c0-0.2,0-0.2,0.3-0.2c0-0.2-0.6-0.2-0.8-0.4c0.2,0,0.3-0.1,0.5-0.1c0-0.1,0-0.2,0-0.3    c-0.5-0.1-0.5-0.1-1.6-0.6c0-0.1,0-0.2,0-0.3c0.3-0.1,0.6-0.2,0.9-0.2c0.5,0.3,1,0.6,1.5,1c0,0.3,0,0.6,0.1,0.9    c1.6,1.3,1.6,1.3,2.7,2c0.2-0.1,0.2-0.1,0.3-0.4c-0.7-0.1-2.6-1.3-2.8-1.9c0.2,0,0.4-0.1,0.6-0.1c0-0.1,0-0.2,0-0.3    c-0.7-0.4-1.4-0.7-2-1.1c0-0.1,0-0.2,0-0.3c-0.3-0.1-0.3-0.1-0.6-0.4c0.2,0,0.3-0.1,0.5-0.1c0-0.1,0-0.2,0-0.3    c-1.2-0.5-2.3-1-3.3-1.8c0.2-0.2,0.8-0.2,0.9-0.3c-1.1-0.6-1.1-0.6-2.8-1.9c1.7-0.3,3.8,1.2,4.3,2.8c0.6,0.4,1.2,0.9,1.9,1.3    c-0.1,1.2,1.7,2.2,2.5,2.9c0-0.2-0.1-0.4-0.1-0.6c-1-0.7-1.6-1.2-2.2-2.2c0.2-0.1,0.3-0.2,0.5-0.2c-0.9-0.5-2.1-1-2.5-2    c0.1,0,0.2,0,0.3,0c-0.5-1.3-2.9-1.5-3.6-3c0.3,0,0.6,0,0.9,0c0-0.1,0-0.2,0-0.3c-0.4,0-0.7,0.1-1.1,0.2c0,0.2,0,0.4,0,0.7    C96.6,38.5,94.6,36.8,94.2,35.9z"/>
		
			<path fill-rule="evenodd" clip-rule="evenodd" fill="#FFFFFF" stroke="#000000" stroke-width="0.216" stroke-miterlimit="22.9256" d="    M115.4,47.6c0.2-0.1,0.3-0.2,0.5-0.3c0.1,0,0.3,0.1,0.4,0.1c-0.2,0.2-0.2,0.2-0.3,0.7c0.3,0,0.3,0,0.3,0.2c-0.3,0-0.6-0.1-0.8-0.1    C115.5,47.9,115.5,47.7,115.4,47.6z"/>
		<path fill-rule="evenodd" clip-rule="evenodd" stroke="#000000" stroke-width="0.216" stroke-miterlimit="22.9256" d="M95,38.2    c0-0.1,0-0.2,0-0.3c-0.9-0.4-5.6-3.1-4.5-4.8c-1.6-1.5-2.4-2.4-2.5-4.6c0.1,0,0.2,0,0.3,0c4.3,3.8,10.5,7.4,15.8,9.3    c0.8,1.4,1.6,2.8,2.4,4.2c1.2,1.6,1.2,1.6,1.8,2.5c0.1,0,0.2,0,0.3,0c0.3,0.4,0.5,0.8,0.8,1.2c-0.1,0-0.2-0.1-0.4-0.1    c-0.1-0.2-0.2-0.3-0.3-0.5c-0.1,0-0.2,0-0.3,0c-0.1-0.3-0.7-0.9-3.2-4.5c-0.4-0.8-0.9-1.6-1.3-2.4c-0.5-0.3-5.7-2.8-10.3-5.3    c-1.4-0.9-2.7-1.7-4.1-2.6c0-0.1,0-0.2,0-0.3c-0.3-0.2-0.7-0.4-1-0.6c-0.1,2.1,2.4,2.7,2.9,4.2c-0.3,0-0.6,0-0.8,0    c0,0.2,0,0.4,0,0.7c0.1,0,0.2,0,0.3,0c0.5,1.6,3.2,2.8,4.5,3.8C95.3,38,95.1,38.1,95,38.2z"/>
		
			<path fill-rule="evenodd" clip-rule="evenodd" fill="#FFFFFF" stroke="#000000" stroke-width="0.216" stroke-miterlimit="22.9256" d="    M101.1,43.7c-2.2-1.2-2.2-1.2-2.9-1.7c0-0.1,0-0.3,0-0.4c0.5,0,0.5,0,1.1,0.2c0,0.1,0,0.2,0,0.3c0.5,0.1,1.2,0.6,1.7,0.6    c0.1,0.6,0.1,0.6,0.3,0.8C101.3,43.6,101.2,43.6,101.1,43.7z"/>
		<path fill-rule="evenodd" clip-rule="evenodd" stroke="#000000" stroke-width="0.216" stroke-miterlimit="22.9256" d="M94.2,35.9    c0-0.1,0-0.2,0-0.3c-1.2-0.6-1.8-1-2.4-2.1c0-0.1,0.1-0.2,0.2-0.2c0.6,1.3,1.8,1.9,3,2.4C94.8,35.8,94.8,35.8,94.2,35.9z"/>
	</g>
	<g>
		<path fill="#2C4A7B" d="M6.3,129.6l5.4-16.6c1-3,2.3-5.9,3.8-8.7c-0.2,0-0.5,0.2-1.1,0.5c-2.1,0.9-3.6,1.3-4.5,1.3    c-1.3,0-1.9-0.5-1.9-1.4c0-1,0.5-2.5,1.5-4.4c1-1.9,2-3.3,2.9-4.3c2.2-2.1,5.7-3.7,10.2-4.9c4.6-1.2,9.7-1.8,15.4-1.8    c3.4,0,6.5,0.3,9.3,0.9c2.8,0.6,5.1,1.4,7.1,2.6c2,1.2,3.5,2.5,4.5,4.2c1,1.6,1.5,3.4,1.5,5.4c0,2.8-0.6,5.3-1.7,7.5    c-1.2,2.2-3,4.2-5.5,6.1c-2.8,2.1-5.4,3.5-7.9,4.1c-0.3,0.1-0.8,0.2-1.4,0.3v0.2c10.8,1.4,16.2,5.8,16.2,13.3    c0,1.5-0.3,3.1-0.8,4.7c-0.5,1.6-1.2,3.2-2.2,4.8c-1,1.6-2.1,3-3.5,4.3c-2.9,2.9-6.4,5.5-10.4,8c-4,2.5-8,4.4-12.1,5.9    c-4,1.5-7.5,2.3-10.4,2.3c-2.4,0-4.7-0.3-7-0.8c-2.2-0.6-4-1.3-5.3-2.2c-1.3-0.9-2-1.9-2-2.9c0-1,0.3-1.8,0.8-2.7    c0.5-0.8,1.5-1.9,3-3.1l-0.2-0.2c-0.8,0.3-1.6,0.5-2.4,0.5c-1.7,0-3.1-0.5-4.1-1.5c-1-1-1.6-2.3-1.6-4c0-1,0.4-3.2,1.3-6.6    C4.1,136.9,5.1,133.3,6.3,129.6z M26.4,123.5c-0.1,0.4-0.2,0.8-0.4,1.3c-0.1,0.5-0.2,1-0.4,1.4c-1.5,4.9-2.8,8.8-4,11.9    c-1.2,3-2.5,5.6-3.8,7.7c-0.8,1.3-1.9,2.7-3.3,4.1c3.7,1.1,6.4,1.9,7.9,2.2c1.6,0.3,3.2,0.5,4.7,0.5c1.8,0,3.4-0.3,4.8-0.8    c1.4-0.5,2.7-1.4,3.9-2.6c1.8-1.8,3.3-3.9,4.4-6.4c1.1-2.5,1.7-4.8,1.7-7.1c0-2.5-0.9-4.6-2.6-6.4c-0.9-0.9-1.8-1.5-2.9-2    c-1.1-0.5-2.5-0.8-4.4-1.2c-1.7-0.3-2.9-0.7-3.6-1S27.2,124.4,26.4,123.5z M33.3,99.9L27.4,120c0.4,0.1,0.7,0.1,1.1,0.1    c1.6,0,3.5-0.8,5.6-2.3c2.7-1.9,4.8-3.9,6.3-6c1.5-2.1,2.2-4.2,2.2-6.2c0-4.2-2.2-6.3-6.6-6.3C34.8,99.3,33.9,99.5,33.3,99.9z"/>
		<path fill="#2C4A7B" d="M92.6,138.5l-0.8,0.6c-0.2,0.1-1.2,0.9-3.1,2.3c-3.7,2.9-6.7,5.2-9.1,6.8c-2.4,1.7-4.4,2.9-6,3.7    c-1.6,0.8-2.9,1.2-3.9,1.2c-1.7,0-3-0.7-4-2s-1.5-3.1-1.5-5.3c0-3.7,0.6-8,1.7-12.9s2.6-9.7,4.5-14.5c2.1-5.3,4.6-8.5,7.5-9.7    c1-0.5,2.3-0.7,3.7-0.7c1.9,0,3.5,0.6,4.7,1.8c1.2,1.2,1.8,2.8,1.8,4.7c0,1.3-0.3,2.8-0.7,4.3c-0.5,1.5-1.2,3.3-2.2,5.4l-0.6,1.3    c-2.6,5.6-4,9-4,10.2c0,0.7,0.2,1.1,0.7,1.1c0.5,0,1.1-0.3,1.8-1s1.9-1.8,3.4-3.5c1-1.2,2.3-2.6,4.1-4.4l1.7-1.7l1.5-1.6    c3.1-3.1,5.6-5.3,7.6-6.6c2-1.4,3.6-2,4.9-2c2.5,0,3.7,2.1,3.7,6.4c0,0.9-0.1,2.5-0.3,4.7c-0.4,4.4-0.6,8.2-0.6,11.2    c0,0.6,0.1,1.2,0.1,1.7c0,0.5,0,1.2,0,2c0.2,2.1,0.4,3.6,0.5,4.7l0.3,2.6c0,0.9-0.8,1.7-2.5,2.4c-1.7,0.7-3.6,1.1-5.8,1.1    c-2,0-3.7-0.4-5.1-1.2s-2.5-1.9-3.2-3.5c-0.7-1.5-1.1-3.4-1.1-5.6c0-0.3,0-0.8,0.1-1.4C92.5,140.5,92.6,139.6,92.6,138.5z     M85.2,99.1c-1.2,0-2.1-0.3-2.8-0.8c-0.7-0.5-1.1-1.2-1.1-2.1c0-1,0.4-2.4,1.2-4.2c0.9-2,1.6-3.2,2.3-3.8c0.7-0.6,1.9-1.2,3.5-1.7    c1.7-0.5,3.4-0.7,5.2-0.7c2,0,3,0.9,3,2.7c0,2.6-1.2,5-3.5,7.2C90.7,98,88.1,99.1,85.2,99.1z M103.3,101c-3.7,0-5.6-1.4-5.6-4.3    c0-1.2,0.2-2.4,0.7-3.7c0.5-1.3,1.1-2.3,1.8-3c1.2-1.2,3.5-1.8,6.9-1.8c2.9,0,4.4,0.8,4.4,2.4c0,0.6-0.2,1.6-0.7,2.7    c-0.5,1.2-1.1,2.4-1.7,3.5c-0.7,1.2-1.4,2.1-2.1,2.8C106.2,100.6,105,101,103.3,101z"/>
		<path fill="#2C4A7B" d="M127.9,154.8c1.8-0.1,3.5-1,4.9-2.6s2.2-3.5,2.2-5.5c0-1.3-0.4-2.4-1.3-3.2c-1-1-3.1-1.9-6.4-2.8    c-4.9-1.4-8.1-3-9.5-4.7c-1.4-1.4-2.1-3.1-2.1-5.1c0-3.5,1.3-7.1,3.8-10.6c2.6-3.5,5.8-6.4,9.8-8.7c4-2.3,8-3.4,12.1-3.4    c2,0,3.8,0.5,5.5,1.4c1.7,0.9,3.1,2.1,4.1,3.7s1.5,3.2,1.5,4.9c0,1.7-0.6,3.6-1.7,5.4c-1.1,1.9-2.5,3.4-4.2,4.7    c-1.7,1.2-3.3,1.9-4.8,1.9c-0.9,0-1.6-0.2-2.2-0.6s-0.9-0.8-0.9-1.2c0-0.4,0.1-1.1,0.4-1.9c0.7-2.6,1-4.9,1-6.9    c0-1.9-0.6-3.8-1.7-5.5c-1.5,1-2.5,1.9-2.9,2.5c-1.2,1.3-2.1,2.9-2.7,4.6c-0.7,1.7-1.1,3.4-1.1,5c0,1.1,0.3,2,0.8,2.6    c0.5,0.7,1.3,1.2,2.5,1.7c1.2,0.5,2.9,1,5.2,1.5c3.9,1,6.6,1.9,8.2,2.8c0.4,0.2,0.9,0.7,1.7,1.3c1.2,1.3,1.7,2.9,1.7,4.9    c0,2.1-0.7,4.3-2,6.4c-1.3,2.2-3.4,4.4-6.1,6.7c-2.9,2.5-5.9,4.3-8.8,5.3c-2.9,1.1-6.1,1.6-9.7,1.6c-3.4,0-6.1-0.7-8-2    c-1.9-1.4-2.9-3.2-2.9-5.5c0-1.7,0.6-3.3,1.9-5c1.3-1.7,2.9-3.1,4.8-4.2c1.9-1.1,3.8-1.6,5.6-1.6c1.4,0,2.1,0.3,2.1,0.9    c0,0.3-0.2,0.8-0.6,1.5c-1.2,2.1-1.8,4.1-1.8,5.9C126.5,152.4,127,153.7,127.9,154.8z"/>
		<path fill="#2C4A7B" d="M184.9,138.5l-0.8,0.6c-0.2,0.1-1.2,0.9-3.1,2.3c-3.7,2.9-6.7,5.2-9.1,6.8c-2.4,1.7-4.4,2.9-6,3.7    c-1.6,0.8-2.9,1.2-3.9,1.2c-1.7,0-3-0.7-4-2s-1.5-3.1-1.5-5.3c0-3.7,0.6-8,1.7-12.9s2.6-9.7,4.5-14.5c2.1-5.3,4.6-8.5,7.5-9.7    c1-0.5,2.3-0.7,3.7-0.7c1.9,0,3.5,0.6,4.7,1.8c1.2,1.2,1.8,2.8,1.8,4.7c0,1.3-0.3,2.8-0.7,4.3c-0.5,1.5-1.2,3.3-2.2,5.4l-0.6,1.3    c-2.6,5.6-4,9-4,10.2c0,0.7,0.2,1.1,0.7,1.1c0.5,0,1.1-0.3,1.8-1s1.9-1.8,3.4-3.5c1-1.2,2.3-2.6,4.1-4.4l1.7-1.7l1.5-1.6    c3.1-3.1,5.6-5.3,7.6-6.6c2-1.4,3.6-2,4.9-2c2.5,0,3.7,2.1,3.7,6.4c0,0.9-0.1,2.5-0.3,4.7c-0.4,4.4-0.6,8.2-0.6,11.2    c0,0.6,0.1,1.2,0.1,1.7c0,0.5,0,1.2,0,2c0.2,2.1,0.4,3.6,0.5,4.7l0.3,2.6c0,0.9-0.8,1.7-2.5,2.4c-1.7,0.7-3.6,1.1-5.8,1.1    c-2,0-3.7-0.4-5.1-1.2s-2.5-1.9-3.2-3.5c-0.7-1.5-1.1-3.4-1.1-5.6c0-0.3,0-0.8,0.1-1.4C184.8,140.5,184.8,139.6,184.9,138.5z"/>
		<path fill="#2C4A7B" d="M256.7,136.2l-12.6,12.9c-1.6,1.6-2.9,2.7-3.9,3.3c-1,0.6-2.1,0.9-3.3,0.9c-1.9,0-3.4-0.7-4.7-2.1    c-1.3-1.4-1.9-3.1-1.9-5.1c0-1.3,0.2-2.6,0.6-4.1c0.4-1.5,1.1-3.7,2.3-6.6c0.2-0.6,0.4-1.1,0.6-1.6c0.2-0.4,0.4-0.8,0.5-1.1    l-0.2-0.2c-3,3.1-5.9,6.4-8.7,9.9c-2.4,2.9-4.3,5-5.7,6.4c-1.4,1.4-2.7,2.5-3.8,3.2c-1.1,0.7-2.1,1.1-3,1.1c-2,0-3.6-0.8-4.7-2.3    c-1.2-1.6-1.7-3.7-1.7-6.4c0-3.4,1.5-8.9,4.4-16.5c2.6-6.7,4.7-11.3,6.1-13.6c2.1-3.2,4.5-4.8,7.3-4.8c1.7,0,3,0.4,4.1,1.2    c1.1,0.8,1.6,1.8,1.6,3.1c0,2.3-0.9,5.8-2.6,10.5c-0.7,1.7-1.4,3.7-2.1,5.9l0.2,0.2c1.1-1.3,3-3.4,5.5-6.5c4.3-5.3,7.6-9,9.8-10.9    c2.9-2.6,5.5-4,7.8-4c1,0,2,0.4,3,1.1s1.7,1.6,2.3,2.8c0.6,1.2,0.9,2.4,0.9,3.7c0,1.3-0.9,4.7-2.8,10.1c-0.4,1.1-0.7,2-0.9,2.7    c-0.2,0.6-0.4,1.2-0.6,1.7l0.2,0.2c0.4-0.4,0.8-0.8,1.1-1.2c0.3-0.3,0.7-0.7,1.1-1.1c0.4-0.4,0.8-0.7,1.2-1.1    c0.8-0.8,2.9-2.9,6.2-6.3c2.2-2.5,3.9-4.1,5.2-5c1.3-0.9,2.5-1.4,3.6-1.4c1.9,0,3.4,0.7,4.3,2c1,1.3,1.5,3.2,1.5,5.8    c0,1.6-0.2,4-0.7,7.4c-0.4,3.8-0.7,6.8-0.9,9c-0.2,2.2-0.3,3.7-0.3,4.5c0,0.6,0,1.5,0.1,2.5c0.1,1,0.2,2.1,0.4,3.2    c0.2,1.1,0.4,2.4,0.7,3.8c0.4,1.7,0.6,3,0.7,4c-0.2,1.1-1.1,2-2.4,2.8c-1.4,0.8-2.8,1.2-4.4,1.2c-2.5,0-4.9-1.1-7.1-3.4    c-1-1-1.7-2.1-2.3-3.2c-0.5-1.1-0.9-2.3-1.2-3.8c-0.2-1.5-0.3-3.4-0.3-5.8c0-1.6,0.2-4.8,0.6-9.7l-0.2-0.2L256.7,136.2z"/>
	</g>
	<g>
		<linearGradient id="SVGID_3_" gradientUnits="userSpaceOnUse" x1="29.9026" y1="162.5854" x2="29.9026" y2="88.0684">
			<stop offset="0" style="stop-color:#4D7BB6"/>
			<stop offset="1" style="stop-color:#3963A4"/>
		</linearGradient>
		<path fill="url(#SVGID_3_)" d="M4.9,128.3l5.4-16.6c1-3,2.3-5.9,3.8-8.7c-0.2,0-0.5,0.2-1.1,0.5c-2.1,0.9-3.6,1.3-4.5,1.3    c-1.3,0-1.9-0.5-1.9-1.4c0-1,0.5-2.5,1.5-4.4c1-1.9,2-3.3,2.9-4.3c2.2-2.1,5.7-3.7,10.2-4.9c4.6-1.2,9.7-1.8,15.4-1.8    c3.4,0,6.5,0.3,9.3,0.9c2.8,0.6,5.1,1.4,7.1,2.6c2,1.1,3.5,2.5,4.5,4.2c1,1.6,1.5,3.4,1.5,5.4c0,2.8-0.6,5.3-1.7,7.4    c-1.2,2.2-3,4.2-5.5,6.1c-2.8,2.1-5.4,3.5-7.9,4.1c-0.3,0.1-0.8,0.2-1.4,0.3v0.2c10.8,1.4,16.2,5.8,16.2,13.3    c0,1.5-0.3,3.1-0.8,4.7c-0.5,1.6-1.2,3.2-2.2,4.8c-1,1.6-2.1,3-3.5,4.3c-2.9,2.9-6.4,5.5-10.4,8c-4,2.5-8,4.4-12.1,5.9    c-4.1,1.5-7.5,2.3-10.4,2.3c-2.4,0-4.8-0.3-7-0.8c-2.2-0.6-4-1.3-5.3-2.2c-1.3-0.9-2-1.9-2-2.9c0-0.9,0.3-1.8,0.8-2.7    c0.5-0.8,1.5-1.9,3-3.1l-0.2-0.2c-0.8,0.3-1.6,0.4-2.4,0.4c-1.7,0-3.1-0.5-4.1-1.5c-1-1-1.6-2.3-1.6-4c0-0.9,0.4-3.2,1.3-6.6    C2.8,135.6,3.8,132,4.9,128.3z M25,122.2c-0.1,0.4-0.2,0.8-0.4,1.3c-0.1,0.5-0.2,1-0.4,1.4c-1.5,4.9-2.8,8.8-4,11.9    c-1.2,3-2.5,5.6-3.8,7.7c-0.8,1.3-1.9,2.7-3.3,4.1c3.7,1.1,6.4,1.9,7.9,2.2c1.6,0.3,3.2,0.5,4.7,0.5c1.8,0,3.4-0.3,4.8-0.8    c1.4-0.5,2.7-1.4,3.9-2.6c1.8-1.8,3.3-3.9,4.4-6.4c1.1-2.5,1.7-4.8,1.7-7.1c0-2.5-0.9-4.7-2.6-6.4c-0.9-0.9-1.8-1.5-2.9-2    c-1.1-0.5-2.5-0.8-4.4-1.2c-1.7-0.3-2.9-0.6-3.6-1S25.8,123.1,25,122.2z M31.9,98.6l-5.9,20.1c0.4,0,0.7,0.1,1.1,0.1    c1.6,0,3.5-0.7,5.6-2.2c2.7-1.9,4.8-3.9,6.3-6c1.5-2.1,2.2-4.2,2.2-6.2c0-4.2-2.2-6.3-6.6-6.3C33.4,98,32.5,98.2,31.9,98.6z"/>
		<linearGradient id="SVGID_4_" gradientUnits="userSpaceOnUse" x1="86.582" y1="151.8776" x2="86.582" y2="84.645">
			<stop offset="0" style="stop-color:#4D7BB6"/>
			<stop offset="1" style="stop-color:#3963A4"/>
		</linearGradient>
		<path fill="url(#SVGID_4_)" d="M91.3,137.2l-0.8,0.6c-0.2,0.1-1.2,0.9-3.1,2.3c-3.7,2.9-6.7,5.2-9.1,6.8c-2.4,1.7-4.4,2.9-6,3.7    c-1.6,0.8-2.9,1.2-3.9,1.2c-1.7,0-3-0.7-4-2c-1-1.4-1.5-3.1-1.5-5.3c0-3.7,0.6-8,1.7-12.9c1.1-4.9,2.6-9.7,4.5-14.5    c2.1-5.3,4.6-8.5,7.5-9.7c1-0.5,2.3-0.7,3.7-0.7c1.9,0,3.5,0.6,4.7,1.8c1.2,1.2,1.8,2.8,1.8,4.8c0,1.4-0.2,2.8-0.7,4.3    c-0.5,1.5-1.2,3.3-2.2,5.4l-0.6,1.3c-2.6,5.6-4,9-4,10.2c0,0.7,0.2,1.1,0.7,1.1c0.5,0,1.1-0.3,1.8-1c0.7-0.6,1.9-1.8,3.4-3.5    c1-1.2,2.3-2.6,4.1-4.4l1.7-1.7l1.5-1.6c3.1-3.1,5.6-5.3,7.6-6.6c2-1.4,3.6-2,4.9-2c2.5,0,3.7,2.1,3.7,6.4c0,0.9-0.1,2.5-0.3,4.7    c-0.4,4.4-0.6,8.2-0.6,11.2c0,0.6,0.1,1.2,0.1,1.7c0,0.5,0,1.2,0,2c0.2,2.1,0.4,3.6,0.5,4.7l0.3,2.6c0,0.9-0.8,1.7-2.5,2.4    c-1.7,0.7-3.6,1.1-5.7,1.1c-2,0-3.7-0.4-5.1-1.2c-1.4-0.8-2.5-1.9-3.2-3.5c-0.7-1.5-1.1-3.4-1.1-5.6c0-0.3,0-0.8,0.1-1.4    C91.2,139.2,91.3,138.3,91.3,137.2z M83.9,97.8c-1.2,0-2.1-0.3-2.8-0.8C80.4,96.5,80,95.8,80,95c0-1,0.4-2.4,1.2-4.2    c0.9-2,1.6-3.2,2.3-3.8c0.7-0.6,1.9-1.2,3.6-1.7c1.7-0.5,3.4-0.7,5.2-0.7c2,0,3,0.9,3,2.7c0,2.6-1.2,5-3.5,7.2    C89.4,96.7,86.8,97.8,83.9,97.8z M102,99.8c-3.7,0-5.6-1.4-5.6-4.3c0-1.2,0.2-2.4,0.7-3.7c0.5-1.3,1.1-2.3,1.8-3    c1.2-1.2,3.5-1.8,6.9-1.8c2.9,0,4.4,0.8,4.4,2.4c0,0.6-0.2,1.6-0.7,2.7c-0.5,1.2-1.1,2.4-1.7,3.5c-0.7,1.2-1.4,2.1-2.1,2.8    C104.9,99.4,103.7,99.8,102,99.8z"/>
		<linearGradient id="SVGID_5_" gradientUnits="userSpaceOnUse" x1="132.1882" y1="159.8902" x2="132.1882" y2="107.0072">
			<stop offset="0" style="stop-color:#4D7BB6"/>
			<stop offset="1" style="stop-color:#3963A4"/>
		</linearGradient>
		<path fill="url(#SVGID_5_)" d="M126.6,153.6c1.8-0.1,3.5-1,4.9-2.6c1.5-1.7,2.2-3.5,2.2-5.4c0-1.3-0.5-2.4-1.4-3.2    c-1-0.9-3.1-1.9-6.4-2.8c-4.9-1.4-8.1-3-9.5-4.7c-1.4-1.4-2.1-3.1-2.1-5.1c0-3.5,1.3-7.1,3.8-10.6c2.6-3.5,5.8-6.4,9.8-8.7    c4-2.3,8-3.4,12.1-3.4c2,0,3.8,0.5,5.5,1.4c1.7,0.9,3.1,2.1,4.1,3.7c1,1.5,1.5,3.2,1.5,4.9c0,1.7-0.6,3.6-1.7,5.4    c-1.1,1.9-2.5,3.4-4.2,4.7c-1.7,1.2-3.3,1.9-4.8,1.9c-0.9,0-1.6-0.2-2.2-0.5s-0.9-0.8-0.9-1.2c0-0.4,0.1-1.1,0.4-1.9    c0.7-2.6,1-4.9,1-6.9c0-1.9-0.6-3.7-1.7-5.5c-1.5,1-2.5,1.9-2.9,2.5c-1.2,1.3-2.1,2.9-2.7,4.6c-0.7,1.7-1.1,3.4-1.1,5    c0,1.1,0.3,2,0.8,2.6c0.5,0.7,1.3,1.2,2.5,1.7c1.2,0.5,2.9,1,5.2,1.5c3.9,1,6.6,1.9,8.2,2.8c0.4,0.2,0.9,0.7,1.7,1.3    c1.2,1.3,1.7,2.9,1.7,4.9c0,2.1-0.7,4.3-2,6.4c-1.3,2.2-3.4,4.4-6.1,6.7c-2.9,2.5-5.9,4.3-8.8,5.3c-2.9,1.1-6.1,1.6-9.7,1.6    c-3.4,0-6.1-0.7-8-2c-1.9-1.4-2.9-3.2-2.9-5.5c0-1.7,0.6-3.3,1.9-5c1.3-1.7,2.9-3.1,4.8-4.2c1.9-1.1,3.8-1.6,5.7-1.6    c1.4,0,2.1,0.3,2.1,0.9c0,0.3-0.2,0.8-0.6,1.5c-1.2,2.1-1.8,4.1-1.8,5.9C125.2,151.2,125.7,152.4,126.6,153.6z"/>
		<linearGradient id="SVGID_6_" gradientUnits="userSpaceOnUse" x1="178.149" y1="151.8776" x2="178.149" y2="106.7888">
			<stop offset="0" style="stop-color:#4D7BB6"/>
			<stop offset="1" style="stop-color:#3963A4"/>
		</linearGradient>
		<path fill="url(#SVGID_6_)" d="M183.6,137.2l-0.8,0.6c-0.2,0.1-1.2,0.9-3.1,2.3c-3.7,2.9-6.7,5.2-9.1,6.8c-2.4,1.7-4.4,2.9-6,3.7    c-1.6,0.8-2.9,1.2-3.9,1.2c-1.7,0-3-0.7-4-2c-1-1.4-1.5-3.1-1.5-5.3c0-3.7,0.6-8,1.7-12.9c1.1-4.9,2.6-9.7,4.5-14.5    c2.1-5.3,4.6-8.5,7.5-9.7c1-0.5,2.3-0.7,3.7-0.7c1.9,0,3.5,0.6,4.7,1.8c1.2,1.2,1.8,2.8,1.8,4.8c0,1.4-0.2,2.8-0.7,4.3    c-0.5,1.5-1.2,3.3-2.2,5.4l-0.6,1.3c-2.6,5.6-4,9-4,10.2c0,0.7,0.2,1.1,0.7,1.1c0.5,0,1.1-0.3,1.8-1c0.7-0.6,1.9-1.8,3.4-3.5    c1-1.2,2.3-2.6,4.1-4.4l1.7-1.7l1.5-1.6c3.1-3.1,5.6-5.3,7.6-6.6c2-1.4,3.6-2,4.9-2c2.5,0,3.7,2.1,3.7,6.4c0,0.9-0.1,2.5-0.3,4.7    c-0.4,4.4-0.6,8.2-0.6,11.2c0,0.6,0.1,1.2,0.1,1.7c0,0.5,0,1.2,0,2c0.2,2.1,0.4,3.6,0.5,4.7l0.3,2.6c0,0.9-0.8,1.7-2.5,2.4    c-1.7,0.7-3.6,1.1-5.7,1.1c-2,0-3.7-0.4-5.1-1.2c-1.4-0.8-2.5-1.9-3.2-3.5c-0.7-1.5-1.1-3.4-1.1-5.6c0-0.3,0-0.8,0.1-1.4    C183.5,139.2,183.5,138.3,183.6,137.2z"/>
		<linearGradient id="SVGID_7_" gradientUnits="userSpaceOnUse" x1="239.2447" y1="159.7445" x2="239.2447" y2="107.5899">
			<stop offset="0" style="stop-color:#4D7BB6"/>
			<stop offset="1" style="stop-color:#3963A4"/>
		</linearGradient>
		<path fill="url(#SVGID_7_)" d="M255.4,134.9l-12.6,12.9c-1.6,1.6-2.9,2.7-3.9,3.3c-1,0.6-2.1,0.9-3.3,0.9c-1.9,0-3.4-0.7-4.7-2.1    c-1.3-1.4-1.9-3.1-1.9-5.1c0-1.3,0.2-2.6,0.6-4.1c0.4-1.5,1.1-3.7,2.3-6.6c0.2-0.6,0.4-1.1,0.6-1.6c0.2-0.4,0.4-0.8,0.5-1.1    l-0.2-0.2c-3,3.1-5.9,6.4-8.7,9.9c-2.4,2.8-4.3,5-5.7,6.4c-1.4,1.4-2.7,2.5-3.8,3.2c-1.1,0.7-2.2,1.1-3,1.1c-2,0-3.6-0.8-4.7-2.3    c-1.2-1.6-1.7-3.7-1.7-6.4c0-3.4,1.5-8.9,4.4-16.5c2.6-6.7,4.7-11.3,6.1-13.6c2.1-3.2,4.5-4.8,7.3-4.8c1.7,0,3,0.4,4.1,1.2    c1.1,0.8,1.6,1.8,1.6,3.1c0,2.3-0.9,5.8-2.6,10.5c-0.7,1.7-1.4,3.7-2.1,5.9l0.2,0.2c1.1-1.3,3-3.4,5.5-6.5c4.3-5.3,7.6-9,9.8-10.9    c2.9-2.6,5.5-4,7.8-4c1,0,2,0.4,3,1.1c1,0.7,1.7,1.6,2.3,2.8c0.6,1.2,0.9,2.4,0.9,3.7c0,1.3-0.9,4.7-2.8,10.1    c-0.4,1.1-0.7,2-0.9,2.7c-0.2,0.6-0.4,1.2-0.6,1.7l0.2,0.2c0.4-0.4,0.8-0.8,1.1-1.1c0.3-0.3,0.7-0.7,1.1-1.1    c0.4-0.4,0.8-0.7,1.2-1.1c0.8-0.8,2.9-2.9,6.2-6.3c2.2-2.5,3.9-4.1,5.2-5c1.3-0.9,2.5-1.4,3.6-1.4c1.9,0,3.4,0.7,4.3,2    c1,1.3,1.5,3.2,1.5,5.8c0,1.6-0.2,4-0.7,7.4c-0.4,3.8-0.7,6.8-0.9,9c-0.2,2.2-0.3,3.7-0.3,4.5c0,0.6,0,1.5,0.1,2.5    c0.1,1,0.2,2.1,0.4,3.2c0.2,1.1,0.4,2.4,0.7,3.8c0.4,1.7,0.6,3,0.7,4c-0.2,1.1-1.1,2-2.4,2.8c-1.4,0.8-2.8,1.1-4.4,1.1    c-2.5,0-4.9-1.1-7.1-3.4c-1-1-1.7-2.1-2.3-3.1c-0.5-1.1-0.9-2.3-1.1-3.8c-0.2-1.5-0.3-3.4-0.3-5.8c0-1.6,0.2-4.8,0.6-9.7l-0.2-0.2    L255.4,134.9z"/>
	</g>
</g>
</svg></svg>
